<svg width="709" height="524" viewBox="0 0 709 524" fill="none" xmlns="http://www.w3.org/2000/svg">
<mask id="mask0_1_237" style="mask-type:alpha" maskUnits="userSpaceOnUse" x="0" y="0" width="709" height="524">
<path d="M0 0H709V524H0V0Z" fill="#D9D9D9"/>
</mask>
<g mask="url(#mask0_1_237)">
<path d="M608.969 515.914C764.877 515.914 891.264 402.545 891.264 262.698C891.264 122.85 764.877 9.4816 608.969 9.4816C453.062 9.4816 326.673 122.85 326.673 262.698C326.673 402.545 453.062 515.914 608.969 515.914Z" fill="#19252F"/>
<path d="M891.264 262.698C891.264 244.974 889.255 227.907 885.417 211.169C841.931 163.742 775.971 133.71 702.154 133.71C570.964 133.71 464.806 229.056 464.806 346.556C464.806 412.527 498.243 471.441 550.865 510.499C569.685 513.945 589.053 515.914 608.969 515.914C765.008 515.914 891.264 402.517 891.264 262.698Z" fill="white"/>
<path d="M489.473 299.458C488.194 300.443 487.098 301.591 485.636 302.576C483.26 304.217 480.885 305.694 478.693 307.335C477.049 308.484 476.5 311.766 477.597 313.407C478.145 314.228 478.875 315.048 479.606 315.868C479.971 316.197 480.703 316.361 481.251 316.361C482.895 316.361 484.54 316.197 486.184 316.361C486.915 316.361 487.463 317.017 488.194 317.346C487.646 318.002 487.098 319.151 486.184 319.315C485.453 319.479 484.174 319.151 483.444 318.658C482.347 318.002 481.616 318.166 481.251 319.315C480.337 322.433 481.434 323.582 484.905 324.895C488.742 326.207 490.387 328.668 490.935 331.951C491.118 332.771 491.3 333.92 492.031 334.577C494.772 337.531 497.33 340.649 501.167 342.618C502.628 343.274 504.456 343.602 506.1 344.095C507.197 344.423 508.841 344.423 509.023 345.08C509.754 346.556 510.303 348.362 509.023 350.002C508.475 350.495 507.927 350.987 507.379 351.48C504.09 354.269 504.273 356.403 507.379 359.193C509.023 360.67 510.12 362.475 511.399 364.116C512.678 365.757 513.774 367.563 515.053 369.367C516.332 371.173 517.611 372.814 518.89 374.618C519.987 376.26 519.255 378.229 517.429 379.214C516.514 379.706 515.601 380.198 514.87 380.855C513.226 382.66 510.851 383.645 508.658 383.645C504.273 383.809 500.984 385.778 497.878 387.912C493.676 390.865 488.925 393.163 484.174 395.296C478.875 397.594 473.394 399.399 468.278 401.861C462.431 404.486 456.767 407.44 451.103 410.558C445.621 413.512 440.323 416.794 434.841 419.912C432.831 421.061 430.639 422.21 428.446 423.03C426.253 423.851 424.061 424.343 421.686 424.343C418.031 424.343 414.56 425.163 411.271 426.148C407.617 427.297 403.962 428.774 400.308 430.251C399.577 430.579 399.211 431.072 398.298 431.728C395.374 428.61 392.086 425.163 388.979 421.717C358.283 387.255 338.915 348.198 330.693 304.709C326.856 284.196 325.76 263.519 327.77 242.677C332.155 194.102 350.426 149.957 383.315 110.899C425.157 61.1753 480.337 29.5027 548.125 15.5536C574.801 10.1381 602.026 8.497 629.433 10.3022C721.339 16.21 804.657 62.4881 851.615 133.71C872.079 164.562 884.686 197.876 889.255 233.652C896.746 293.386 882.494 348.69 846.865 399.727C846.134 400.876 845.402 401.04 844.124 400.547C835.536 397.429 826.949 394.312 818.361 391.358C817.995 391.194 805.022 387.583 804.474 387.419C801.003 385.778 797.714 384.301 794.06 382.824C790.954 381.675 787.847 380.855 784.558 380.034C781.087 379.049 777.798 378.065 774.692 376.424C772.682 375.439 770.307 375.111 768.114 374.455C766.835 373.963 765.373 373.634 764.46 372.814C762.267 371.009 759.71 370.845 756.969 371.173C754.41 371.336 752.035 371.829 749.66 372.321C746.737 372.814 745.092 374.619 743.63 376.916C742.168 379.049 740.342 381.183 738.331 382.988C734.86 386.27 732.668 393.163 738.331 396.773C739.062 397.265 739.611 397.922 740.159 398.578C741.255 399.727 740.707 400.876 739.062 401.204C736.322 401.696 733.398 402.189 730.84 402.845C728.099 403.665 726.455 405.635 724.81 407.768C722.984 410.394 721.156 413.184 718.963 415.645C717.319 417.614 714.944 418.599 712.386 418.435C709.28 418.107 707.453 419.584 705.991 421.553C705.625 421.881 705.442 422.374 705.077 422.702C701.971 424.835 702.519 427.626 703.616 430.251C704.346 431.892 705.077 433.369 705.808 435.01C706.357 436.323 706.357 437.636 705.442 438.948C703.616 441.738 701.788 444.528 698.682 446.333C697.221 447.154 695.758 448.139 694.662 449.287C691.739 452.241 690.095 455.688 689.181 459.461C688.085 464.221 685.161 467.831 680.228 469.637C676.574 470.949 672.92 472.262 669.082 473.083C664.149 474.231 659.947 476.693 656.475 479.811C652.638 483.422 648.435 486.211 643.32 487.524C641.31 488.016 638.934 488.016 636.742 488.18C635.645 488.18 634.366 488.016 633.088 488.016C631.443 488.016 630.164 488.508 629.25 489.822C628.337 491.134 627.058 492.283 625.778 493.432C624.134 494.908 620.846 494.745 618.653 493.268C618.47 493.104 618.287 492.94 617.922 492.775C616.094 491.298 614.45 490.806 611.892 492.119C607.873 494.089 601.66 492.283 599.285 489.001C597.823 486.868 595.996 484.898 594.534 482.765C593.621 481.452 592.524 481.288 591.063 481.452C588.87 481.616 586.861 481.944 584.668 481.944C582.475 481.944 581.014 480.959 579.917 479.319C579.186 478.17 577.725 477.513 576.629 476.529C573.34 473.903 569.868 471.277 566.579 468.652C566.397 468.488 566.213 468.324 566.03 468.159C565.482 467.503 564.386 466.846 565.117 465.698C565.848 464.713 567.127 464.549 568.223 465.042C569.319 465.534 570.233 466.026 571.33 466.518C573.34 467.339 575.532 468.159 577.725 468.652C580.1 469.144 582.475 469.637 584.485 470.949C586.312 472.262 587.409 472.098 588.87 470.621C591.246 468.159 592.89 465.206 593.073 461.759C593.073 460.775 593.073 459.79 593.073 458.806C593.256 458.149 593.621 457.492 593.804 456.836C594.534 457.164 595.813 457.328 596.178 457.985C597.641 460.61 598.371 463.236 597.093 466.19C595.996 468.816 594.534 471.277 592.159 473.083C591.246 473.739 591.246 474.395 592.159 475.052C593.986 476.201 595.63 477.513 597.275 478.662C597.823 479.155 598.371 479.647 598.919 480.14C599.833 481.124 602.026 481.78 602.939 481.288C604.584 480.468 605.314 478.991 604.401 477.349C603.67 475.873 603.853 474.724 604.584 473.411C605.132 472.426 605.862 471.77 607.142 472.098C608.055 472.426 608.969 473.083 609.151 473.739C609.517 475.873 609.7 478.334 607.873 480.14C607.142 480.795 607.142 481.452 607.873 481.944C608.421 482.273 609.334 482.437 610.065 482.273C610.614 482.273 610.979 481.616 611.344 481.288C612.075 480.631 612.806 480.139 613.902 480.959C614.085 481.124 614.998 480.959 615.364 480.795C616.643 480.468 617.557 480.304 618.47 481.452C619.201 482.273 620.48 482.929 621.394 483.586C622.124 482.601 623.038 481.616 623.404 480.467C624.317 478.006 624.865 475.38 625.596 472.755C625.778 472.098 626.327 471.442 626.875 470.785C627.789 469.801 628.885 468.98 630.347 469.473C631.808 470.129 632.722 471.277 632.905 472.919C632.905 474.067 632.539 475.38 634.549 475.216C635.645 475.216 636.742 476.365 638.021 475.38C638.751 474.888 639.665 475.052 640.031 475.873C640.579 477.349 641.675 477.185 642.588 476.365C643.137 475.873 644.05 475.38 644.233 474.888C644.964 473.083 646.426 472.919 648.253 472.919C651.907 472.919 655.926 469.637 655.926 466.355C655.926 465.042 655.744 463.893 654.282 463.072C653.369 462.416 652.638 461.759 651.907 461.103C650.263 459.461 650.446 456.672 651.907 455.031C653.004 453.882 654.1 453.882 655.196 454.867C655.744 455.359 656.475 455.688 657.389 456.344C657.937 455.031 658.302 454.046 658.667 453.061C659.947 449.123 661.408 445.021 662.322 441.082C662.87 438.62 662.504 435.83 662.139 433.205C661.774 430.251 661.043 427.461 660.495 424.507C660.495 424.343 660.312 424.179 660.312 424.015C656.11 418.763 656.475 412.692 655.744 406.783C655.744 406.62 655.744 406.62 655.561 406.292C654.83 407.276 654.282 408.261 653.552 408.917C653.004 409.41 652.272 409.574 651.542 409.901C651.176 409.245 650.628 408.425 650.811 407.768C651.359 405.963 652.272 404.158 653.004 402.353C653.186 401.861 653.917 401.368 654.282 401.368C655.926 401.204 656.293 400.055 656.841 399.071C657.389 398.086 656.658 396.937 655.378 396.445C654.1 395.953 653.186 396.28 652.82 397.265C652.09 399.399 651.542 401.532 650.994 403.829C650.811 404.322 650.994 404.979 650.628 405.307C650.08 405.963 649.532 406.292 648.801 406.783C648.253 406.127 647.339 405.471 647.339 404.814C647.339 403.173 647.705 401.368 647.887 399.727C648.07 398.578 648.07 397.594 646.791 397.101C645.877 396.773 645.146 396.445 644.598 397.758C643.685 399.727 642.223 401.04 639.299 401.204C639.483 400.219 639.483 399.563 639.665 398.743C639.848 397.594 640.031 396.445 638.569 395.952C637.473 395.625 636.01 396.445 635.462 397.758C635.28 398.25 634.914 398.743 634.549 399.235C633.818 400.219 632.722 400.219 632.356 399.071C631.808 397.758 630.895 397.429 629.433 397.758C627.789 398.25 627.058 399.235 627.241 400.547C627.606 402.845 627.789 405.143 626.144 406.947C625.596 407.604 624.682 407.932 623.952 408.425C623.404 407.604 622.672 406.947 622.49 406.128C622.307 404.158 622.307 402.189 622.49 400.219C622.672 397.265 620.48 396.116 618.287 396.116C617.374 396.116 616.461 396.445 615.546 396.773C613.72 397.758 612.075 397.594 610.431 396.609C609.151 395.952 607.507 395.296 606.411 394.476C605.68 393.983 605.497 392.998 605.132 392.178C606.045 392.178 607.142 391.85 608.055 392.178C608.969 392.506 609.883 393.327 610.796 393.655C611.344 393.983 612.258 394.147 612.806 394.312C612.989 393.983 613.172 393.819 613.172 393.819C613.172 392.998 613.172 391.522 613.354 391.522C614.45 391.358 615.912 391.194 617.009 391.522C619.932 392.343 622.855 393.327 625.778 393.983C627.058 394.312 628.519 394.147 629.982 393.983C631.991 393.655 632.722 392.834 632.722 391.029C632.722 389.06 633.453 388.732 635.28 389.552C636.559 390.209 637.838 391.194 639.299 391.522C642.04 392.343 644.781 393.163 647.705 393.819C649.715 394.147 650.811 392.506 649.715 391.029C648.435 389.06 646.791 387.419 645.512 385.45C645.146 384.958 644.964 384.137 644.781 383.48C645.512 383.48 646.426 383.316 646.974 383.48C650.628 384.629 652.638 387.419 655.013 389.88C656.841 391.85 658.85 392.998 661.774 392.343C664.149 391.85 665.428 392.67 664.88 394.804C664.332 397.429 663.418 400.055 662.139 402.517C659.947 407.112 658.667 411.543 660.495 416.466C661.956 420.241 663.053 424.179 663.966 427.953C664.514 430.087 664.149 432.384 664.514 434.518C664.88 437.308 665.61 439.933 666.342 442.723C667.073 445.677 666.89 448.631 665.245 451.421C664.332 452.897 663.418 454.375 663.418 456.344C663.418 457.328 662.87 458.313 662.322 459.134C661.408 460.282 661.956 461.267 662.87 462.088C663.784 462.908 664.697 462.252 665.61 461.759C665.976 461.595 666.525 461.431 666.707 461.103C669.082 457.657 673.102 455.359 674.564 451.585C675.294 449.451 675.294 447.154 675.66 445.021C675.66 444.528 675.66 444.036 676.025 443.708C676.574 443.051 677.305 442.559 678.035 442.066C678.401 442.723 679.131 443.379 679.131 444.036C679.314 446.826 680.594 447.646 683.517 446.497C683.882 446.333 684.43 446.005 684.43 445.512C685.344 442.723 686.441 439.933 684.43 437.143C683.7 436.159 683.517 435.01 683.334 433.861C682.969 432.548 683.7 431.892 685.161 431.563C685.892 431.399 686.806 430.908 687.171 430.251C688.267 427.79 690.643 426.312 692.287 424.507C693.749 422.866 694.845 421.225 695.941 419.42C696.307 418.927 695.941 417.614 695.393 417.122C694.845 416.794 693.566 416.958 692.836 417.286C690.46 418.435 689.547 418.107 688.267 415.974C688.085 415.645 687.902 415.317 687.719 414.989C687.354 414.661 686.806 414.496 686.258 414.168C686.075 414.661 685.892 415.153 685.892 415.481C685.892 416.302 685.892 416.959 685.892 417.779C685.709 419.256 684.065 420.896 682.42 420.733C681.872 420.733 681.142 419.912 680.776 419.256C680.594 419.092 680.594 418.599 680.594 418.271C680.594 417.123 680.045 416.63 678.583 416.959C676.757 417.287 674.746 417.614 672.92 417.614C669.082 417.45 666.89 415.481 666.342 412.199C665.976 409.902 666.89 409.41 669.265 410.066C671.092 410.722 673.102 411.543 674.929 412.035C676.391 412.527 677.305 411.707 677.305 410.394C677.305 409.41 676.939 409.245 675.842 409.081C672.006 408.917 670.727 408.096 669.631 404.814C669.265 403.501 668.534 402.517 667.255 401.861C665.976 401.204 665.793 399.891 666.342 398.907C666.707 398.25 667.803 397.758 668.717 397.758C670.544 397.922 670.727 396.937 671.092 395.625C671.458 394.312 671.823 392.998 672.554 392.014C672.92 391.358 674.016 391.029 674.746 390.701C675.112 391.522 675.66 392.178 675.66 392.998C675.66 394.476 675.294 395.789 675.112 397.265C674.929 398.25 674.746 399.399 674.929 400.383C674.929 401.04 675.66 401.696 676.025 402.189C676.574 401.861 677.487 401.532 677.853 401.04C679.314 398.743 680.776 396.609 681.872 394.147C682.786 392.178 682.786 389.88 683.334 387.747C683.517 386.927 683.517 385.942 683.882 385.285C684.248 384.629 685.161 383.973 685.709 383.973C686.806 383.809 687.354 384.629 687.537 385.614C688.267 388.24 688.45 390.865 687.537 393.655C687.354 394.312 687.354 394.968 687.171 395.625C689.729 395.132 690.095 395.461 689.912 397.594C689.912 398.414 689.547 399.235 688.998 400.055C685.892 405.307 689.364 411.871 695.941 412.528C698.682 412.856 701.788 411.05 700.327 407.768C699.779 406.455 699.596 405.143 699.23 403.829C698.865 402.845 698.499 401.861 697.951 400.876C696.49 398.743 697.038 397.101 699.23 395.625C701.058 394.476 702.702 393.327 704.346 392.014C704.894 391.522 705.442 390.865 705.625 390.209C705.808 389.552 705.625 388.24 705.26 388.076C704.346 387.912 703.25 387.912 702.519 388.404C701.423 389.06 700.692 390.045 699.779 390.865C697.769 392.506 695.21 392.014 694.48 389.716C693.018 385.122 692.47 380.527 693.384 375.767C694.114 372.485 693.932 368.875 694.114 365.429C694.114 364.936 693.566 364.444 693.201 364.116C692.287 363.296 691.191 362.803 690.46 361.982C689.363 360.833 689.363 359.193 690.826 358.865C694.297 358.044 694.662 355.254 695.941 352.957C696.125 352.793 696.125 352.464 696.307 352.3C696.855 351.808 697.586 350.823 698.134 350.987C698.865 351.151 699.596 351.808 699.962 352.464C700.875 354.269 700.51 356.075 699.779 358.044C698.682 360.833 698.865 360.998 701.423 362.803C703.068 363.952 704.712 365.1 706.174 366.414C706.722 366.906 707.087 367.89 707.453 368.711C708.001 369.696 707.453 370.68 706.357 371.173C705.26 371.665 703.981 371.665 703.068 370.68C702.336 370.024 701.788 369.203 701.058 368.547C700.327 367.727 699.23 367.563 698.499 368.382C696.307 370.845 697.038 379.378 702.154 380.691C705.077 381.347 707.27 380.691 709.463 378.065C711.472 375.767 712.934 373.47 713.3 370.516C713.482 369.039 713.848 367.726 711.655 367.234C711.29 367.234 711.107 365.921 711.29 365.429C712.752 362.967 713.117 360.506 713.3 357.716C713.3 357.223 713.117 356.567 712.934 355.911C712.568 356.239 712.203 356.403 712.02 356.403C711.107 356.567 710.194 357.223 709.463 356.896C708.914 356.731 708.549 355.582 708.366 354.926C708.001 351.972 707.27 349.182 705.625 346.72C705.442 346.556 705.442 346.393 705.26 346.229C705.077 345.244 704.894 344.095 704.894 343.111C706.174 343.438 707.635 343.438 708.914 343.931C709.828 344.259 710.559 345.244 711.29 345.9C712.568 347.049 713.848 348.198 715.857 348.69C718.05 349.182 718.05 350.987 718.05 353.613C718.05 354.926 718.05 356.239 718.233 357.551C718.415 357.551 718.598 357.716 718.781 357.716C719.329 357.387 720.06 357.059 720.426 356.567C723.349 353.285 724.262 349.511 723.714 345.408C723.532 343.766 723.349 342.126 723.166 340.484C722.984 339.336 722.801 338.187 722.435 337.202C721.704 335.726 721.887 334.413 722.801 333.1C723.897 331.623 724.81 329.982 722.984 328.177C722.435 328.505 721.887 328.833 721.339 329.161C720.06 330.146 718.598 329.817 717.867 328.505C717.319 327.684 716.406 327.028 715.857 326.043C715.492 325.223 715.126 324.074 715.492 323.417C715.674 322.925 717.137 322.597 718.05 322.761C720.791 323.089 723.532 323.582 726.455 324.074C729.379 315.54 725.724 307.991 722.618 300.279C722.252 302.248 721.887 304.217 721.522 306.186C721.156 307.664 720.974 309.14 720.426 310.617C719.695 312.915 718.781 315.212 717.685 317.51C717.502 318.002 716.589 318.658 716.041 318.658C715.492 318.658 714.761 318.002 714.396 317.346C713.482 315.54 713.482 313.571 714.213 311.602C715.857 306.843 717.502 302.084 718.963 297.324C719.146 296.833 718.963 296.34 718.781 295.684C718.598 294.37 718.233 293.058 718.233 291.745C718.233 291.417 718.598 290.76 718.963 290.596C719.329 290.432 720.06 290.76 720.426 291.088C721.156 291.745 721.704 292.566 722.435 293.386C722.984 294.042 723.714 294.206 724.628 293.714C726.821 292.73 728.83 288.135 728.465 286.33C728.099 283.539 727.734 280.914 727.369 278.124C727.003 275.99 726.638 274.021 726.273 271.888C726.09 270.903 726.09 269.919 726.455 269.098C726.821 268.278 727.734 267.621 728.465 266.801C729.195 267.457 730.658 268.114 730.84 268.935C731.206 270.739 731.206 272.708 731.206 274.678C731.206 278.124 731.023 281.57 731.206 285.017C731.206 285.673 732.119 286.33 732.668 286.986C733.398 286.494 734.312 286.001 734.86 285.345C735.225 284.852 735.225 284.032 735.408 283.375C735.59 279.601 735.59 275.826 735.773 272.052C735.957 267.129 733.581 263.354 729.561 260.237C728.099 259.252 727.369 257.939 727.186 256.298C726.821 254.165 726.273 252.195 725.541 250.062C724.81 248.256 721.522 247.436 719.878 248.585C718.598 249.405 717.502 250.554 716.223 251.374C715.492 251.703 714.396 251.867 713.665 251.539C712.568 251.21 712.02 250.39 712.752 249.241C714.03 247.108 715.126 244.646 716.954 243.005C719.878 240.38 721.704 237.261 722.618 233.815C723.714 229.877 725.541 226.103 728.099 222.656C730.292 219.538 732.119 215.928 734.677 213.138C738.697 208.872 743.265 205.097 747.833 201.158C749.66 199.681 752.218 195.414 751.852 193.445C750.756 194.594 749.66 195.742 748.563 196.563C746.189 198.368 743.63 200.338 741.072 201.814C737.783 203.784 734.494 205.261 731.206 207.066C727.186 209.363 725.358 213.138 724.08 216.912C723.349 218.882 722.801 221.015 721.887 222.985C721.704 223.476 720.791 223.969 720.243 224.461C719.878 223.805 718.963 223.148 719.146 222.656C719.695 219.866 720.243 216.912 721.339 214.287C722.252 211.989 723.349 209.691 724.81 207.723C725.906 206.245 727.551 205.097 729.013 203.948C733.581 200.338 738.879 197.548 743.996 194.758C748.381 192.296 752.035 189.014 754.045 184.583C754.593 183.107 755.689 181.958 756.055 180.481C756.969 177.526 755.689 174.573 754.41 171.947C751.852 166.367 749.111 160.788 746.554 155.209C745.822 153.567 745.092 151.762 744.544 149.957C744.361 148.972 744.544 147.824 744.909 146.839C745.822 145.034 747.467 143.393 747.102 141.095C746.919 140.11 747.833 138.962 748.198 137.977C748.746 136.5 748.015 135.023 746.737 134.367C746.371 134.203 745.457 134.367 745.092 134.695C742.534 136.5 739.794 137.813 736.687 138.305C736.322 138.305 735.773 138.469 735.59 138.305C735.042 138.141 734.494 137.813 733.946 137.485C734.312 136.993 734.677 136.5 735.225 136.008C735.591 135.679 736.322 135.679 736.687 135.351C739.794 133.875 740.89 131.741 740.342 128.459C740.159 127.31 738.697 126.654 737.235 126.818C735.956 126.982 734.677 127.146 733.581 126.982C731.023 126.654 730.475 124.52 729.379 122.715C728.099 120.418 727.003 117.956 725.358 115.987C720.06 108.93 712.568 103.679 705.808 97.9352C703.068 95.6379 700.692 93.0117 698.317 90.5503C693.566 85.6271 687.719 82.0168 682.055 78.0782C679.131 75.9449 675.66 74.632 672.371 72.8268C668.351 70.6935 664.514 68.3959 660.678 66.0984C659.215 65.2778 657.571 64.6215 655.744 63.965C655.013 63.8009 654.1 63.8009 653.369 63.965C650.994 64.4574 650.811 65.442 652.272 66.919C651.176 67.9036 649.349 67.7395 647.887 66.5908C645.329 64.6215 642.954 62.6522 639.848 61.6676C634.366 60.0265 628.702 58.5495 623.221 57.0726C620.663 56.4161 618.287 55.4315 615.729 54.9392C613.902 54.4468 611.892 54.2828 609.883 54.1186C607.69 53.9546 605.68 53.2981 604.401 51.493C603.853 50.6725 602.939 50.0161 602.026 49.3596C600.747 48.3749 599.285 47.8826 597.458 48.2109C591.976 49.0314 587.591 51.3288 583.572 54.611C579.735 57.893 575.166 60.3546 569.868 61.1752C567.31 61.5034 564.569 61.9958 562.011 62.324C560.184 62.4881 558.539 61.9958 557.078 60.8471C555.798 59.8624 554.154 59.2059 552.51 58.5495C551.048 58.0572 549.952 58.7136 549.038 59.5342C547.942 60.3546 546.663 61.1753 545.749 62.1599C543.557 64.2933 540.633 64.4574 537.893 64.1292C533.69 63.4728 530.401 64.9497 528.026 67.5754C526.381 69.5447 525.285 72.0063 524.006 74.1397C523.458 75.2884 523.092 76.4371 522.544 77.5858C521.814 79.0628 520.169 79.5551 518.525 80.0475C513.226 81.6885 507.927 83.0014 502.811 84.8066C499.705 85.7909 497.33 87.9248 495.685 90.5503C493.127 94.6531 491.3 99.0841 490.387 103.679C490.021 105.648 488.925 106.632 486.915 107.289C485.818 107.617 484.722 108.11 483.626 108.438C479.058 109.915 475.221 112.212 472.48 115.987C469.557 120.254 466.085 124.52 464.258 129.279C462.614 133.546 460.97 137.813 459.325 142.079C458.411 144.542 456.767 146.839 454.209 148.316C450.92 150.449 449.275 153.403 449.093 157.177C448.91 162.429 448.179 167.516 447.631 172.768C447.449 174.901 446.901 176.707 445.438 178.347C444.16 179.66 444.89 181.301 445.438 182.778C445.804 183.763 446.352 184.583 446.717 185.568C447.449 187.702 447.449 189.671 446.534 191.804C444.89 195.414 442.698 198.696 440.14 201.814C438.13 204.112 436.668 207.066 435.937 209.856C434.841 214.287 434.476 218.718 434.11 223.312C433.928 225.118 434.658 226.923 434.658 228.728C434.658 229.877 434.476 231.189 433.745 232.338C432.831 233.815 433.196 235.292 433.745 236.77C435.024 240.543 436.302 244.482 437.765 248.256C438.861 251.21 440.323 254.165 441.784 256.954C442.698 258.923 443.794 261.057 445.073 263.026C445.804 264.175 447.083 264.996 448.545 265.652C451.468 266.801 454.574 266.801 457.498 266.144C460.421 265.652 462.796 266.801 465.172 268.114C466.268 268.77 467.365 269.754 468.278 270.575C471.567 273.529 475.769 274.514 480.155 275.006C480.885 275.17 481.799 274.678 482.53 274.514C483.444 274.186 483.992 274.514 484.357 275.335C485.453 277.632 485.636 280.093 484.357 282.391C483.626 283.703 482.53 285.017 481.616 286.494C480.703 287.97 479.606 289.284 480.52 291.088C480.886 292.073 481.434 292.566 482.712 292.73C483.809 292.73 483.992 293.55 483.26 294.37C482.712 294.863 482.164 295.355 481.434 295.848C480.155 296.833 479.972 298.145 480.703 299.458C481.434 300.443 482.895 300.606 484.357 299.95C485.27 299.458 486.184 298.966 487.098 298.637C487.829 298.309 488.742 298.145 489.473 297.981C489.29 298.966 489.473 299.13 489.473 299.458ZM749.66 241.692C748.563 241.856 747.833 242.021 747.102 242.185C745.092 242.677 744.361 242.349 743.996 240.708C743.813 240.216 743.63 239.723 743.265 239.395C742.9 239.067 742.351 238.903 741.986 238.738C741.803 239.067 741.62 239.559 741.438 239.887C741.072 241.856 741.072 243.826 740.342 245.467C739.062 248.585 737.053 251.047 733.216 252.031C732.484 252.195 731.206 253.18 731.388 253.672C731.571 254.493 732.302 255.313 733.033 255.805C733.398 256.134 734.677 255.805 735.042 255.477C737.418 253.672 739.793 251.703 742.168 249.898C743.448 248.913 745.092 248.092 746.554 247.272C746.919 247.108 747.467 246.944 747.65 246.616C748.198 245.303 748.929 243.662 749.66 241.692ZM749.843 234.472C749.843 232.995 749.843 231.682 749.843 230.533C749.843 229.221 748.746 228.236 747.467 228.072C746.006 227.907 744.361 227.907 742.9 228.072C742.534 228.072 741.803 228.892 741.986 229.056C742.351 230.041 742.9 231.189 743.63 231.682C745.457 232.831 747.467 233.487 749.843 234.472ZM755.689 198.369C759.161 195.25 759.161 192.625 755.689 189.835C755.689 192.789 755.689 195.414 755.689 198.369ZM762.998 205.425C762.633 205.425 762.45 205.589 762.084 205.589C761.719 207.23 761.719 208.871 762.45 210.348C762.633 210.84 763.546 211.169 764.277 211.333C764.46 211.333 765.373 210.676 765.19 210.676C764.46 209.035 763.729 207.23 762.998 205.425Z" fill="black"/>
<path d="M651.724 225.118C653.186 224.789 654.648 224.461 656.11 224.133C659.399 223.312 662.87 222.492 666.159 221.343C668.717 220.523 669.448 219.046 669.265 216.912C669.082 215.107 667.438 213.63 665.062 213.138C659.398 211.989 653.917 211.333 648.253 212.974C646.426 213.466 644.964 214.615 643.502 215.6C640.762 217.405 638.203 219.538 635.28 221.179C632.904 222.656 630.164 222.492 627.423 222.164C625.23 222 624.317 222.328 623.586 224.133C623.038 225.938 622.855 228.072 622.307 229.876C621.942 231.189 621.394 232.338 620.846 233.487C620.663 233.815 619.749 234.143 619.018 234.143C618.653 234.143 618.105 233.487 618.105 232.995C617.557 229.876 617.009 226.758 616.461 223.64C615.729 220.523 616.643 217.733 618.287 215.107C619.749 212.645 619.749 212.481 617.374 210.676C616.826 210.184 615.912 209.199 616.094 209.035C616.826 208.051 617.922 207.887 619.201 208.215C620.663 208.707 622.124 209.199 623.586 209.527C626.51 210.184 629.067 209.035 631.078 207.23C632.356 206.081 633.453 204.605 634.914 203.456C636.01 202.471 637.473 201.323 638.934 200.994C644.964 200.009 649.897 197.548 654.648 194.266C659.398 191.147 664.514 188.686 670.179 187.373C672.371 186.881 674.564 186.06 676.757 185.568C677.305 185.404 678.035 185.568 678.583 185.732C678.218 186.224 678.035 186.881 677.67 187.209C674.564 189.507 671.458 191.64 668.351 194.102C667.438 194.758 666.707 195.742 665.976 196.563C665.245 197.384 665.61 198.204 666.525 198.532C669.813 199.353 671.64 201.814 674.016 203.784C675.477 205.096 677.122 206.409 678.949 207.23C679.863 207.722 681.69 207.558 682.603 207.066C688.085 204.276 690.643 200.83 689.912 195.086C689.364 191.147 688.267 187.209 687.719 183.107C686.989 177.855 686.806 172.44 687.537 167.188C687.719 166.204 688.267 165.055 688.815 164.234C689.729 162.921 691.374 162.758 692.104 164.234C692.836 165.383 693.018 166.695 693.201 168.009C693.566 169.814 693.566 171.619 693.932 173.424C694.845 178.511 695.941 183.435 696.49 188.522C696.855 190.656 696.673 192.789 696.307 194.922C695.576 198.368 694.48 201.814 693.384 205.096C692.47 207.887 689.729 209.527 687.171 211.005C684.248 212.645 681.142 214.287 677.305 213.958C676.939 213.958 676.391 214.451 676.025 214.779C675.112 215.436 674.381 216.091 673.65 216.748C673.285 217.076 672.736 217.569 672.554 217.897C670.91 221.672 667.803 224.133 663.601 225.446C663.053 225.61 662.504 225.774 662.139 225.61C658.85 225.446 655.378 225.118 652.09 224.954C651.907 225.282 651.907 225.118 651.724 225.118ZM651.176 208.215C651.176 208.379 651.359 208.543 651.359 208.543C652.821 208.543 654.465 208.707 655.926 208.543C660.495 208.215 665.062 208.215 669.631 209.527C670.179 209.691 670.727 209.527 671.275 209.527C671.275 208.871 671.458 208.215 671.092 207.887C669.082 205.425 666.342 203.784 663.053 203.127C661.774 202.963 660.312 203.291 659.215 203.948C657.023 204.932 655.013 206.081 653.004 207.23C652.272 207.394 651.724 207.887 651.176 208.215Z" fill="black"/>
<path d="M553.241 324.074C553.972 325.879 554.702 327.52 555.25 329.325C555.616 330.638 556.53 330.802 557.809 330.638C561.28 329.982 564.569 326.371 565.117 322.761C565.482 320.464 565.848 318.166 566.213 316.033C566.396 315.54 566.945 315.048 567.31 314.392C567.858 314.884 568.406 315.212 568.771 315.868C569.137 316.689 569.137 317.838 569.502 318.658C569.685 319.151 570.051 319.643 570.233 320.135C570.781 319.643 571.512 319.315 571.695 318.822C572.243 316.853 572.608 314.884 572.974 312.915C573.157 312.094 573.156 311.109 573.705 310.453C574.253 309.468 575.166 309.468 575.897 310.453C576.629 311.437 577.359 312.422 578.09 313.407C579.003 314.719 580.1 315.048 581.379 313.9C582.292 312.915 582.84 311.766 583.572 310.617C584.12 309.797 584.12 308.648 584.668 307.991C585.581 306.843 586.861 306.843 587.774 307.991C589.053 309.633 592.159 309.797 593.621 308.155C593.986 307.827 594.352 307.335 594.717 307.007C595.63 306.186 596.545 305.694 597.823 306.515C599.285 307.335 600.381 307.007 601.478 305.858C602.574 304.545 603.67 303.233 604.949 302.084C605.314 301.591 605.862 301.099 606.411 300.77C607.325 300.115 608.055 300.115 608.421 301.263C609.151 303.397 609.517 303.561 611.892 302.74C612.258 302.576 612.806 302.412 612.988 302.576C614.268 303.725 615.729 303.233 617.374 303.233C618.287 303.233 619.383 304.053 620.297 304.381C621.211 304.709 621.942 305.53 622.672 305.366C623.221 305.366 623.952 304.381 624.134 303.561C624.5 302.74 624.5 301.591 624.865 300.77C625.048 300.278 625.778 299.786 626.144 299.294C626.51 299.786 626.875 300.279 627.058 300.935C627.423 302.412 627.789 303.889 628.337 305.366C628.702 306.679 629.799 307.171 631.26 306.679C632.722 306.186 634.001 306.351 635.462 307.007C638.569 308.648 639.482 308.484 642.04 306.515C643.137 305.694 643.685 304.545 643.502 303.233C643.137 301.755 642.954 300.279 642.588 298.801C642.406 297.652 642.771 296.996 644.05 296.668C645.512 296.34 645.877 297.324 645.877 298.145C646.242 299.786 646.609 301.427 646.426 303.068C645.877 306.35 648.435 308.319 650.811 309.797C652.82 311.109 654.648 312.258 656.658 313.735C659.033 315.54 661.956 316.525 664.88 317.838C669.082 319.643 673.65 320.956 677.122 323.746C677.487 324.074 677.853 324.731 678.218 325.059C677.67 325.223 677.122 325.551 676.574 325.386C675.112 325.222 673.468 325.058 672.371 324.402C669.631 322.925 666.707 322.433 663.601 323.253C660.678 323.91 658.119 323.253 656.475 320.956C656.293 320.792 656.109 320.628 655.926 320.299C655.378 319.643 654.83 319.643 654.1 320.135C652.09 321.284 650.08 322.597 647.887 323.417C645.694 324.402 643.685 324.566 641.492 322.925C640.396 322.104 638.934 321.776 637.473 321.284C636.925 321.12 636.01 320.956 635.645 320.628C634.184 318.986 631.991 318.986 629.981 318.33C626.144 317.182 622.307 316.197 619.201 313.735C617.009 311.93 614.268 310.945 610.979 312.094C610.065 312.422 608.969 312.422 608.055 312.258C606.411 311.766 605.497 312.258 604.218 313.079C600.747 315.212 597.093 316.689 592.707 316.361C591.428 316.361 590.149 315.868 589.053 315.376C587.957 315.048 587.591 315.048 587.226 316.033C586.129 319.151 583.937 320.792 580.283 320.956C579.551 320.956 578.638 321.612 578.273 322.268C576.629 325.715 574.253 328.177 570.233 329.489C569.868 329.653 569.319 329.982 569.137 330.31C567.31 333.92 562.194 336.217 557.809 335.398C556.895 335.233 555.798 335.069 554.702 334.905C554.337 334.905 553.789 335.069 553.424 335.233C551.048 337.695 548.125 336.874 545.566 335.561C544.653 335.069 543.922 334.413 543.008 334.084C542.095 333.756 541.182 333.592 540.268 333.264C539.719 333.1 538.989 332.771 538.623 332.443C538.258 332.279 538.258 331.787 537.893 331.623C536.065 329.161 536.065 329.161 532.776 329.982C531.132 330.31 529.487 329.653 528.939 328.177C528.209 326.535 528.574 324.238 529.853 323.582C530.584 323.089 531.315 323.253 531.315 324.238C531.315 324.731 531.132 325.222 531.315 325.551C531.315 326.043 531.498 326.864 531.863 327.028C532.411 327.192 533.325 327.192 533.873 326.864C534.969 326.371 535.882 325.551 536.614 324.894C537.527 324.074 538.258 324.238 539.171 324.894C539.537 325.222 539.903 325.715 540.268 326.043C541.547 328.177 543.374 329.489 545.566 330.802C546.663 331.459 548.125 331.787 549.221 330.966C551.048 329.817 552.875 328.504 553.058 326.207C553.241 325.551 553.424 324.895 553.606 324.074C552.875 323.91 553.058 324.074 553.241 324.074ZM648.435 314.392C648.253 313.9 648.253 313.735 648.253 313.571C647.705 312.422 644.964 310.617 643.502 310.617C643.137 310.617 642.588 310.782 642.588 310.945C642.406 311.273 642.406 311.93 642.588 312.094C644.05 313.079 645.694 314.064 647.339 314.884C647.522 314.884 648.07 314.556 648.435 314.392Z" fill="black"/>
<path d="M590.698 206.902C590.88 208.707 589.601 209.856 587.957 211.005C585.398 212.645 585.398 213.63 588.505 214.943C589.418 215.272 590.332 215.763 591.063 216.256C592.524 217.405 592.342 218.718 590.515 219.374C589.235 219.866 587.774 220.03 586.495 220.523C585.398 221.015 584.12 221.507 583.206 222.492C581.379 224.297 579.369 224.461 577.542 222.82C576.629 222 575.897 221.179 575.166 220.358C573.888 219.046 573.156 219.046 571.878 220.358C571.147 221.015 570.416 221.672 569.502 222.328C569.137 222.492 568.589 222.492 568.223 222.328C568.041 222.164 568.041 221.507 568.223 221.179C570.416 217.733 567.858 216.256 564.386 216.091C558.357 215.763 552.327 216.912 546.481 218.389C544.47 218.882 544.105 220.194 545.566 221.507C546.481 222.328 547.577 222.656 548.673 223.148C549.038 223.312 549.586 223.476 550.135 223.64C550.135 223.805 549.952 223.969 549.952 224.133C548.855 223.969 547.759 223.969 546.663 223.64C545.384 223.312 544.105 222.492 542.826 222C542.095 221.836 541.364 221.836 540.633 221.672C540.633 222.328 540.816 222.984 540.816 223.805C540.816 223.969 540.999 224.297 541.364 224.954C540.451 224.625 539.719 224.461 539.354 224.133C537.345 222.656 535.334 222.328 532.959 223.64C532.594 223.969 531.863 223.805 531.315 223.969C531.315 223.805 531.132 223.805 531.132 223.64C531.498 223.148 531.863 222.492 532.411 222.164C536.614 219.866 540.633 217.405 545.018 215.272C546.48 214.451 548.49 214.287 550.317 214.123C555.798 213.63 561.463 213.466 566.945 213.138C568.223 213.138 569.868 213.466 570.233 211.989C570.599 210.512 568.771 210.184 567.675 209.691C562.924 207.558 557.809 206.738 552.692 206.081C550.866 205.753 548.855 205.753 546.846 205.589C541.912 205.26 538.806 207.722 536.614 211.333C534.421 215.272 530.95 217.897 526.747 220.03C525.65 220.687 524.006 220.687 522.544 220.851C521.996 220.851 521.266 220.358 521.083 219.866C520.9 219.538 521.631 219.046 521.814 218.554C521.814 218.554 521.814 218.554 521.996 218.389C525.833 217.24 527.295 214.451 528.939 211.333C530.401 208.871 532.594 206.574 534.786 204.44C536.614 202.635 536.614 201.814 534.604 200.338C533.69 199.681 532.776 199.189 531.68 198.696C528.391 197.22 527.843 197.22 525.102 199.517C523.458 200.83 521.996 202.471 520.535 204.112C520.169 204.44 519.803 204.933 519.438 205.261C517.794 206.738 515.966 206.409 515.236 204.44C514.505 202.471 514.14 200.338 513.957 198.368C513.774 196.399 513.957 194.266 513.957 192.296C514.14 188.358 513.226 184.419 511.764 180.809C511.216 179.66 510.303 178.347 511.947 177.362C513.774 176.378 514.87 177.855 515.418 178.84C517.063 181.465 518.159 184.255 519.803 186.717C521.083 188.85 522.727 190.984 524.372 193.117C524.737 193.609 525.468 194.102 526.016 194.102C529.122 194.593 532.228 195.086 535.152 195.578C536.614 195.742 537.893 195.907 539.354 196.071C541.547 196.399 543.374 197.056 545.018 198.368C547.577 200.502 550.683 200.994 553.972 201.158C557.261 201.322 560.732 201.487 563.838 202.635C565.117 203.127 566.396 203.948 567.675 204.605C568.771 205.097 569.868 205.917 570.964 205.917C573.705 206.245 576.262 207.066 578.455 208.707C579.003 209.199 580.1 209.527 580.831 209.363C584.12 208.707 587.226 207.887 590.698 206.902Z" fill="black"/>
<path d="M559.453 112.377C561.463 113.033 563.473 114.181 564.752 115.823C566.579 117.792 568.589 118.448 571.33 117.956C571.695 117.956 571.878 117.792 572.243 117.792C573.157 117.956 573.888 117.956 574.801 118.12C574.436 118.777 574.253 119.761 573.522 120.253C572.243 121.074 570.599 121.566 569.137 122.387C566.579 123.7 563.656 124.52 561.463 126.326C555.981 131.248 549.221 132.233 541.912 132.397C538.623 132.397 535.152 132.233 531.863 132.233C529.487 132.233 527.295 132.89 525.285 134.203C523.092 135.679 520.717 137.157 518.525 138.633C516.881 139.782 515.053 140.439 513.043 139.782C511.582 139.29 509.937 139.29 508.475 138.633C507.562 138.305 506.649 137.321 506.649 136.5C506.465 135.187 507.927 135.023 509.206 135.023C512.312 135.187 514.14 133.875 515.418 131.412C516.514 129.444 518.159 127.638 519.621 125.833C521.996 123.044 525.468 121.73 529.122 121.402C532.046 121.238 534.969 121.566 537.893 121.73C538.806 121.73 539.719 121.895 540.633 122.059C542.278 122.223 543.008 121.566 542.278 120.253C541.73 119.269 540.999 118.284 539.903 117.792C537.345 116.151 534.421 115.659 531.315 115.823C529.67 115.987 527.843 115.987 526.198 116.151C525.65 116.151 524.92 115.987 524.372 115.987C524.372 115.823 524.189 115.659 524.189 115.495C524.92 115.33 525.65 115.002 526.381 114.838C533.69 113.525 540.451 114.674 546.663 118.12C547.759 118.777 549.038 119.105 550.317 119.433C550.865 119.597 551.596 119.105 552.327 118.941C552.144 118.448 551.962 117.628 551.414 117.299C549.769 116.315 547.942 115.166 546.114 114.51C540.451 112.048 534.969 109.587 528.757 108.93C526.198 108.602 523.458 108.602 520.717 108.438C519.987 108.438 519.255 108.438 518.707 108.274C518.159 108.11 517.611 107.781 517.429 107.289C517.246 106.961 517.794 106.304 518.159 106.141C519.255 105.648 520.352 104.992 521.448 104.992C525.833 104.828 530.401 104.828 534.969 104.992C539.537 105.156 543.557 106.961 547.394 109.095C550.683 110.899 553.789 112.869 557.078 114.838C557.261 115.002 557.626 115.166 557.809 115.166C558.357 115.33 558.905 115.33 559.453 115.33C559.453 114.838 559.453 114.346 559.27 113.853C559.087 113.361 558.905 113.033 558.722 112.541C559.087 112.541 559.27 112.377 559.453 112.377Z" fill="black"/>
<path d="M615.546 291.581C615.364 291.581 615.364 291.581 615.181 291.581C612.075 290.76 609.517 291.581 606.594 292.73C604.401 293.55 602.208 292.401 602.208 290.268C602.208 284.196 598.006 282.719 592.707 282.063C589.601 281.735 586.495 281.242 583.754 279.765C583.389 279.601 583.024 279.437 582.658 279.272C581.562 278.452 580.648 277.468 581.196 276.154C581.744 274.842 583.024 274.678 584.485 274.678C585.581 274.678 586.678 274.842 587.774 274.842C589.601 274.678 590.149 273.693 589.784 272.052C589.418 270.575 588.87 269.262 588.505 267.786C587.957 266.144 589.053 264.996 590.332 264.011C591.246 263.354 591.976 263.683 591.976 264.668C592.159 266.472 592.342 268.442 592.89 270.247C593.256 272.217 594.9 273.529 596.91 274.021C601.295 275.006 605.862 275.499 610.248 273.857C611.71 273.365 612.989 271.888 614.085 270.575C615.546 268.606 616.643 266.472 618.105 264.503C618.653 263.847 619.749 263.026 620.298 263.026C621.028 263.19 621.759 264.175 622.124 264.996C622.672 265.98 622.855 267.129 623.221 268.278C623.952 270.247 625.23 271.068 627.606 271.068C628.519 271.068 629.433 270.739 630.53 270.739C632.174 270.575 634.184 269.919 635.462 271.56C636.742 273.201 636.559 276.319 635.28 277.632C633.453 279.437 631.626 280.914 628.885 281.57C625.961 282.227 624.134 283.703 623.221 286.329C621.942 290.103 619.749 291.417 615.546 291.581Z" fill="black"/>
<path d="M471.932 234.8C472.48 235.128 473.028 235.292 473.394 235.785C474.856 237.261 476.317 238.574 477.414 240.216C479.606 243.498 482.895 245.303 486.733 246.616C490.752 247.928 494.589 249.57 498.974 249.734C500.253 249.734 501.35 250.39 501.715 251.703C501.898 253.18 500.801 253.672 499.705 254.165C497.513 255.313 495.32 255.477 492.762 254.656C489.838 253.672 488.742 254.165 487.463 256.79C486.184 259.252 484.357 261.221 481.434 262.37C478.327 263.683 476.5 262.37 476.683 259.252C476.866 257.775 477.049 256.134 476.683 254.656C476.5 253.672 475.586 252.688 474.856 252.195C473.76 251.374 472.846 252.031 472.663 253.18C472.48 254.165 472.115 255.149 471.75 255.97C471.567 256.462 470.836 256.954 470.288 256.79C469.922 256.79 469.374 256.134 469.009 255.805C468.461 254.985 468.095 254.001 467.547 253.18C466.633 252.031 466.817 250.882 467.913 249.898C468.643 249.077 469.922 248.256 469.191 246.944C468.461 245.631 467.182 245.138 465.537 245.138C464.441 245.138 463.344 245.138 462.066 245.138C460.421 245.303 459.873 246.287 460.239 247.764C460.239 248.092 460.421 248.256 460.421 248.421C460.421 248.913 460.421 249.734 460.056 249.898C459.507 250.062 458.594 250.062 458.229 249.734C456.767 248.421 455.488 246.944 454.026 245.631C453.478 244.974 452.747 244.318 452.016 243.99C450.737 243.334 450.372 242.513 451.103 241.692C452.016 240.707 453.112 239.887 454.392 239.395C455.488 238.903 455.853 239.887 456.036 240.544C456.218 241.364 456.401 242.185 456.767 243.005C457.681 242.841 458.411 242.513 459.325 242.349C460.239 242.185 460.969 242.185 461.883 242.021C463.528 241.692 463.71 241.2 462.979 239.887C462.066 238.246 460.787 236.605 460.239 234.8C459.507 232.995 459.325 231.189 459.142 229.385C459.142 228.892 459.873 228.4 460.239 227.907C460.421 228.4 460.787 228.892 460.969 229.385C461.518 230.697 461.883 232.174 462.796 233.323C465.354 236.933 467.913 240.543 472.298 242.513C473.394 243.005 474.673 243.005 475.952 243.17C475.769 242.185 475.769 240.872 475.404 240.052C474.673 238.574 473.577 237.261 472.48 235.949C472.298 235.621 471.932 235.292 471.75 234.8C471.567 235.128 471.75 234.964 471.932 234.8Z" fill="black"/>
<path d="M474.49 181.137C474.49 180.153 474.49 179.66 474.49 179.168C475.038 175.393 476.134 171.783 478.145 168.665C480.52 165.055 483.992 162.265 489.107 162.265C491.848 162.265 494.589 162.265 497.147 162.921C503.176 164.234 507.745 162.265 511.764 158.655C512.495 157.998 513.592 157.342 514.322 156.685C514.505 156.849 514.688 156.849 514.688 157.013C514.322 157.998 513.957 158.819 513.774 159.803C513.226 161.444 512.86 163.249 512.495 164.891C511.034 170.47 506.1 175.065 498.791 175.229C494.406 175.393 490.204 175.229 485.818 175.393C482.53 175.558 479.606 177.035 476.866 178.675C476.134 179.168 475.586 180.153 474.49 181.137Z" fill="black"/>
<path d="M659.033 131.412C655.196 131.412 651.542 131.412 647.705 131.412C646.791 131.412 645.877 130.757 645.146 130.593C646.06 130.264 646.974 129.936 647.887 129.772C648.801 129.608 649.897 129.936 650.811 129.936C657.206 129.772 662.504 127.31 666.525 123.208C670.179 119.597 673.468 115.166 673.285 109.914C673.285 108.11 672.736 106.304 672.371 104.499C671.458 100.889 670.727 97.1144 668.169 93.8324C667.073 92.5192 665.793 91.371 664.697 90.0579C664.149 89.4013 664.149 88.5814 663.784 87.9248C664.697 87.7606 665.61 87.4324 666.525 87.7606C669.447 88.5806 671.275 90.8786 673.102 92.8475C676.209 96.1296 677.305 100.068 678.766 103.843C679.314 105.156 679.863 105.977 681.507 105.977C682.238 105.977 683.334 106.468 683.882 106.961C684.978 107.781 684.613 108.766 683.334 109.423C682.42 109.914 681.872 110.735 681.142 111.392C680.594 112.048 680.045 112.869 679.314 113.361C677.853 114.181 677.122 115.33 676.574 116.808C676.025 119.105 675.112 121.402 674.381 123.536C672.737 127.966 667.073 131.248 662.139 131.084C661.043 131.084 660.129 131.084 659.033 131.084C659.033 131.084 659.033 131.248 659.033 131.412Z" fill="black"/>
<path d="M707.635 259.744C706.905 262.205 705.991 264.668 705.077 266.965C704.712 267.95 703.981 268.935 703.433 270.083C702.702 271.396 703.25 272.216 704.529 272.872C705.442 273.365 706.357 273.857 707.087 274.35C708.183 275.006 708.183 275.827 706.905 276.319C706.174 276.647 705.26 276.811 704.346 277.139C700.144 278.124 696.673 279.929 693.384 282.555C692.47 283.375 690.826 284.032 689.547 284.196C686.806 284.524 685.161 282.063 686.623 279.929C687.719 278.452 688.815 276.975 690.095 275.827C691.556 274.678 692.287 273.365 692.836 271.724C693.384 269.262 694.662 267.129 696.125 264.832C697.221 263.19 697.769 261.057 698.317 259.088C698.865 257.447 699.596 255.805 701.606 255.149C704.164 254.493 706.357 255.805 706.722 258.268C706.722 258.595 706.722 259.088 706.722 259.416C707.27 259.744 707.453 259.744 707.635 259.744Z" fill="black"/>
<path d="M495.685 194.102C495.137 194.922 494.954 195.414 494.406 195.907C488.559 201.323 484.722 207.723 483.078 215.272C482.712 217.405 482.347 219.538 481.982 221.672C481.799 222.492 481.434 223.476 480.885 224.133C480.52 224.625 479.606 225.282 479.241 225.118C478.693 224.954 477.962 224.297 477.779 223.64C477.414 222.656 477.231 221.672 477.049 220.687C476.683 218.554 476.5 216.256 475.769 214.123C474.49 210.02 476.5 207.066 479.789 204.605C482.712 202.471 485.818 200.338 488.925 198.204C489.473 197.876 489.655 197.056 490.021 196.399C489.107 196.235 488.194 195.907 487.463 196.071C483.26 198.204 479.058 200.174 475.038 202.635C471.384 204.769 468.095 207.23 464.624 209.527C464.258 209.691 463.71 209.691 463.345 209.856C463.345 209.363 463.162 208.707 463.345 208.543C465.537 206.245 467.547 203.948 469.922 201.978C472.298 200.009 475.038 198.204 477.962 196.563C482.53 193.938 487.463 192.789 492.944 194.266C493.493 194.266 494.406 194.102 495.685 194.102Z" fill="black"/>
<path d="M611.344 454.539C608.969 452.077 607.507 449.287 608.238 445.841C608.786 442.887 609.883 440.261 612.44 438.128C613.354 437.308 613.172 435.83 613.537 434.517C613.902 432.548 614.085 430.579 614.633 428.61C614.998 427.461 616.094 426.312 617.191 425.492C618.47 424.671 618.105 424.179 617.557 423.194C616.643 421.881 615.912 420.241 615.364 418.763C615.181 418.435 615.729 417.779 615.912 417.286C616.461 417.614 617.191 417.779 617.557 418.107C618.835 420.404 620.663 421.881 622.856 423.359C625.048 424.999 625.961 427.625 622.672 429.266C620.846 430.251 620.297 431.728 621.211 433.533C622.672 436.651 622.49 437.143 620.115 439.605C619.383 440.426 619.018 441.574 618.835 442.559C618.653 444.857 618.105 445.184 616.094 444.036C615.181 443.543 614.45 443.708 614.085 444.528C612.989 446.497 612.075 448.63 612.44 450.928C612.623 451.912 612.44 453.061 612.44 454.21C611.892 454.539 611.71 454.539 611.344 454.539Z" fill="black"/>
<path d="M618.47 115.002C618.105 114.346 617.739 113.853 617.739 113.197C617.739 108.274 617.557 103.186 617.739 98.2634C617.922 95.9654 619.383 93.8324 621.393 92.3551C623.221 91.0427 625.048 89.8937 626.875 88.9089C627.606 88.5813 628.519 88.7455 629.433 88.7455C629.25 89.5654 629.433 90.3861 629.067 91.0427C628.519 92.0276 627.789 92.8475 626.693 94.1606C627.789 93.9965 628.519 93.9965 629.067 93.9965C634.914 92.6834 640.944 92.0276 646.974 93.3399C647.887 93.5041 648.618 93.9965 649.532 94.4889C649.715 94.6531 649.897 94.9814 649.897 95.3096C649.897 95.4738 649.349 95.6372 649.166 95.6372C643.137 94.9814 637.29 96.622 631.443 97.771C627.423 98.5917 624.317 100.889 622.49 104.335C621.576 106.305 620.48 108.274 619.749 110.407C619.201 111.884 619.201 113.525 619.018 115.166C618.835 114.838 618.653 114.838 618.47 115.002Z" fill="black"/>
<path d="M685.892 140.439C684.248 140.439 682.786 140.767 681.324 140.603C679.497 140.439 678.949 139.782 679.314 138.141C679.314 137.485 679.68 136.828 679.863 136.172C680.045 135.679 680.046 135.023 680.228 134.53C680.046 134.53 679.863 134.367 679.863 134.367C679.131 135.515 678.401 136.664 677.487 137.813C677.122 138.305 676.574 138.633 676.209 138.961C675.842 138.469 675.294 137.813 675.294 137.321C675.294 134.203 676.939 131.741 678.949 129.444C680.593 127.31 682.603 125.505 684.613 123.536C684.796 123.208 685.161 123.208 686.074 122.715C686.074 124.192 686.258 125.177 686.074 126.326C685.709 128.787 685.161 131.248 684.796 133.71C684.796 134.367 684.978 135.023 685.161 135.679C685.892 135.515 686.441 135.351 687.171 135.023C687.719 134.859 688.085 134.531 688.633 134.367C692.287 132.89 695.21 130.921 697.403 127.802C697.769 127.31 698.317 127.146 698.865 126.818C699.23 127.31 699.779 127.966 699.779 128.459C699.779 132.069 697.951 135.187 695.028 137.649C694.297 138.305 693.201 138.797 692.47 139.454C691.008 141.095 689.729 142.736 688.267 144.377C687.902 144.706 687.537 145.034 687.171 145.362C686.806 145.034 686.074 144.542 686.074 144.213C685.709 142.736 685.892 141.588 685.892 140.439Z" fill="black"/>
<path d="M634.732 448.466C634.549 447.81 634.366 446.99 634.366 446.497C635.28 443.215 636.194 440.097 637.29 436.979C637.655 435.502 638.386 434.19 638.934 432.712C639.482 430.908 639.299 429.102 638.203 427.625C636.925 425.82 635.645 424.178 634.184 422.374C633.818 422.045 633.453 421.553 633.453 421.225C633.27 420.732 633.27 420.076 633.453 419.748C633.636 419.584 634.549 419.42 634.914 419.748C636.742 420.568 638.386 421.717 640.031 422.702C640.031 422.702 640.214 422.702 640.214 422.538C641.127 420.24 642.406 419.912 644.233 421.717C646.06 423.523 647.339 425.492 648.983 427.461C649.532 428.117 650.08 428.61 650.628 429.266C652.638 431.235 652.09 433.041 649.532 434.19C649.166 434.354 648.983 434.845 648.618 435.338C648.253 436.159 647.887 436.979 647.157 438.292C645.877 436.651 644.964 435.502 643.868 434.354C639.299 437.8 636.742 441.574 636.01 446.333C635.828 447.154 635.645 447.975 635.28 448.631C635.28 448.467 635.097 448.466 634.732 448.466Z" fill="black"/>
<path d="M548.307 418.763C549.038 419.584 549.769 420.404 550.5 421.389C550.683 421.717 550.683 422.21 550.866 422.702C550.318 422.702 549.586 422.866 549.221 422.702C542.095 419.584 537.162 414.661 533.142 408.753C531.863 406.947 531.315 404.814 532.228 402.516C532.411 402.025 532.959 401.861 533.325 401.368C533.69 401.696 534.056 401.861 534.238 402.189C534.786 403.337 535.517 404.322 535.882 405.471C538.075 410.394 544.105 412.692 548.125 412.528C549.769 412.528 550.135 411.871 549.586 410.394C549.403 409.902 549.038 409.245 549.221 408.753C549.221 408.261 549.586 407.768 549.952 407.604C550.317 407.44 550.866 407.768 551.231 407.932C553.241 408.753 555.25 409.574 557.261 410.394C557.809 410.558 558.539 411.05 558.539 411.379C558.539 411.871 557.809 412.692 557.443 412.692C554.702 412.856 553.424 414.168 553.241 416.466C553.241 416.958 551.779 417.45 550.866 417.779C550.135 417.943 549.403 417.943 548.49 417.943C548.49 418.435 548.49 418.599 548.307 418.763Z" fill="black"/>
<path d="M540.999 300.443C541.547 300.279 542.095 300.115 542.643 299.786C549.952 293.878 556.164 286.986 560.732 279.109C563.473 274.186 566.762 269.426 570.051 264.832C571.695 262.698 574.07 261.057 576.262 259.252C576.811 258.759 577.725 258.595 578.638 258.431C580.648 258.267 581.927 259.744 580.831 261.221C580.1 262.205 579.003 263.026 577.907 263.847C576.994 264.668 575.714 265.323 574.984 266.308C570.416 272.216 565.848 277.96 561.463 284.032C556.53 290.76 550.5 296.34 543.008 300.77C542.643 300.935 542.278 301.099 542.095 301.099C541.547 300.935 541.364 300.77 540.999 300.443Z" fill="black"/>
<path d="M589.053 465.042C589.053 466.355 588.322 467.01 586.678 466.518C583.572 465.698 581.379 463.564 579.003 461.759C576.262 459.79 574.984 457 573.705 454.21C573.522 453.882 573.34 453.39 573.157 453.061C572.791 452.569 572.243 452.077 571.695 451.749C571.33 452.241 570.781 452.569 570.416 453.061C569.868 453.882 569.502 455.195 568.041 454.703C566.579 454.375 566.397 453.226 566.762 452.077C567.493 449.123 568.223 446.333 568.954 443.379C569.137 442.887 570.051 442.559 570.599 442.23C570.964 442.723 571.695 443.215 571.695 443.708C572.243 449.451 575.714 453.226 581.562 455.524C585.033 456.836 589.053 461.759 589.053 465.042Z" fill="black"/>
<path d="M633.453 427.461C633.636 431.071 632.356 434.517 630.347 437.799C628.154 441.41 626.693 445.348 625.048 449.287C624.5 450.6 623.952 451.913 623.221 453.061C622.855 453.718 621.759 454.375 621.211 454.21C620.663 454.046 619.749 453.061 619.749 452.405C619.932 450.436 619.932 448.303 620.846 446.497C621.942 443.872 623.769 441.575 625.413 439.112C626.875 436.651 628.885 434.517 629.981 432.056C631.443 429.102 631.808 425.984 628.885 423.359C627.423 422.045 626.144 420.732 624.682 419.256C624.317 418.928 624.317 418.435 624.317 418.107C624.865 417.943 625.413 417.614 625.778 417.778C628.154 419.256 630.53 420.568 632.905 422.21C634.001 422.866 634.184 424.014 634.001 425.328C633.453 425.984 633.636 426.641 633.453 427.461Z" fill="black"/>
<path d="M664.332 335.726C665.428 336.053 666.707 336.546 667.803 336.874C669.996 337.531 672.188 338.023 674.564 338.515C679.131 339.5 683.152 341.141 686.074 344.423C687.902 346.393 689.729 348.198 692.47 349.018C692.652 349.018 692.836 349.182 692.836 349.182C693.566 349.674 694.114 350.331 694.845 350.823C693.932 351.48 693.201 352.464 692.104 352.629C689.912 353.121 687.902 351.972 686.074 350.823C682.603 348.69 679.314 346.392 675.842 344.259C673.285 342.782 670.727 341.469 668.169 340.156C666.89 339.5 665.793 338.515 664.697 337.695C664.149 337.202 663.966 336.546 663.784 335.889C663.966 336.053 664.149 335.89 664.332 335.726Z" fill="black"/>
<path d="M696.49 158.162C697.951 158.983 699.413 159.803 700.692 160.624C704.529 162.758 708.914 163.249 713.117 164.07C719.146 165.055 723.714 168.009 727.003 172.604C727.551 173.424 727.917 174.737 727.917 175.722C727.917 176.871 727.003 177.198 726.09 176.542C725.358 176.214 724.81 175.558 724.08 175.065C720.06 171.619 715.674 168.993 710.011 168.337C706.174 167.844 703.25 165.547 700.327 163.413C698.865 162.265 697.586 161.116 696.49 159.803C696.125 159.475 695.941 158.819 695.758 158.326C696.125 158.326 696.307 158.326 696.49 158.162Z" fill="black"/>
<path d="M587.409 426.148C592.342 426.805 595.813 432.056 593.804 435.994C592.524 438.784 591.611 441.574 590.515 444.364C589.235 447.318 586.861 449.779 583.024 450.6C581.196 450.928 579.369 450.436 578.821 449.287C578.09 447.81 578.638 446.497 580.1 445.677C581.379 444.857 582.658 444.036 584.12 443.379C585.581 442.723 586.495 441.902 586.129 440.426C585.764 438.948 586.495 437.8 587.409 436.815C589.967 434.026 589.784 431.071 588.322 428.117C587.957 427.461 587.774 426.805 587.409 426.148Z" fill="black"/>
<path d="M696.307 167.188C698.865 170.306 703.25 170.306 706.539 171.947C713.117 175.229 718.233 179.66 720.243 186.224C720.608 187.537 720.608 189.178 720.425 190.656C720.243 191.968 719.329 192.296 718.233 191.311C717.319 190.491 716.406 189.507 715.857 188.358C713.848 184.255 711.107 180.644 707.453 177.691C705.625 176.05 703.433 174.901 701.423 173.588C699.596 172.275 697.951 170.798 696.307 169.322C695.576 168.829 695.21 168.009 696.307 167.188Z" fill="black"/>
<path d="M616.094 465.534C614.45 465.37 612.806 465.37 611.162 465.206C609.517 465.041 608.603 465.37 608.421 466.846C608.238 467.503 607.873 468.324 607.325 468.816C606.228 469.801 604.949 469.637 604.401 468.324C604.036 467.339 603.853 466.19 604.036 465.206C604.584 461.595 603.853 458.313 601.843 455.195C601.112 454.046 600.929 452.569 600.564 451.092C600.564 450.764 600.93 450.436 601.112 449.944C601.478 450.272 601.843 450.436 602.026 450.764C603.67 452.733 605.132 454.867 606.777 456.836C607.325 457.657 608.055 457.821 609.151 457.164C610.431 456.179 611.71 456.672 612.258 457.821C613.537 460.61 616.094 461.431 619.018 461.924C620.115 462.088 621.576 462.252 621.211 463.4C621.028 464.221 619.566 464.877 618.653 465.206C618.105 465.698 617.009 465.37 616.094 465.534Z" fill="black"/>
<path d="M700.692 149.3C701.423 149.793 701.788 149.793 701.971 150.121C706.722 155.044 712.934 157.177 719.695 157.834C723.349 158.162 726.638 158.983 729.744 160.624C733.581 162.758 736.322 165.711 738.697 169.158C738.879 169.486 739.062 169.65 739.062 169.978C739.062 170.47 738.879 170.798 738.697 171.126C738.331 170.962 737.966 170.798 737.601 170.634C736.87 169.977 736.322 169.322 735.773 168.665C733.398 164.891 729.195 163.413 724.993 162.265C721.704 161.444 718.415 161.116 714.944 160.624C711.29 160.131 708.183 158.655 705.625 156.357C703.981 154.88 702.519 153.403 701.24 151.762C700.875 151.27 700.875 150.449 700.692 149.3Z" fill="black"/>
<path d="M552.875 97.6069C555.068 98.0993 557.261 98.5917 559.27 99.2475C567.858 102.202 574.436 107.617 580.283 113.853C582.658 116.479 585.033 119.269 587.226 122.059C587.591 122.551 587.591 123.536 587.591 124.192C586.678 124.028 585.764 124.192 585.033 123.7C583.937 123.044 583.206 122.223 582.292 121.402C576.994 116.315 571.878 110.899 566.397 106.141C562.742 103.022 558.539 100.232 553.789 98.7559C553.606 98.7559 553.241 98.5917 553.058 98.4276C552.875 98.4276 552.875 98.0993 552.875 98.0993C552.692 97.9351 552.875 97.771 552.875 97.6069Z" fill="black"/>
<path d="M553.424 432.877C553.058 434.517 552.875 436.487 552.51 438.62C552.51 438.948 552.327 439.441 552.144 439.769C551.596 440.426 550.866 441.575 550.135 441.575C549.403 441.575 548.49 440.754 547.942 439.933C546.114 436.979 544.653 434.026 543.008 431.071C542.46 429.923 541.73 428.938 541.364 427.789C541.182 427.133 540.999 426.312 541.364 425.82C541.912 424.343 543.008 424.014 544.288 425.163C545.384 425.984 546.114 426.969 547.029 427.789C547.942 428.61 548.855 428.938 549.769 427.625C549.769 427.625 549.769 427.461 549.952 427.461C550.683 426.969 551.414 426.641 552.327 426.148C552.692 426.805 553.241 427.461 553.424 428.281C553.424 429.594 553.424 431.071 553.424 432.877Z" fill="black"/>
<path d="M515.418 296.176C514.87 299.622 512.495 302.084 510.668 304.545C509.754 305.858 508.658 307.171 507.745 308.484C506.649 309.961 506.465 311.602 507.014 313.243C508.475 317.838 509.754 322.433 512.678 326.535C513.409 327.684 514.505 328.669 515.418 329.982C515.784 330.31 515.601 330.966 515.784 331.459C515.053 331.459 514.14 331.787 513.774 331.459C512.312 329.982 510.851 328.505 509.937 326.7C507.562 322.104 505.552 317.182 503.176 312.422C502.08 310.125 502.628 308.319 504.273 306.515C507.379 303.397 510.668 300.279 513.774 297.16C513.957 296.833 514.505 296.668 515.418 296.176Z" fill="black"/>
<path d="M689.912 324.731C690.095 325.715 690.095 326.207 690.095 326.864C690.46 329.161 689.364 330.638 686.806 331.295C685.709 331.459 684.978 331.131 684.978 330.31C684.978 329.161 685.344 327.849 685.892 326.7C687.171 323.582 688.085 319.479 684.796 317.346C683.334 316.361 681.872 315.704 680.411 314.884C678.766 313.9 676.939 313.079 675.294 312.094C674.929 311.766 674.746 311.273 674.381 310.782C674.929 310.617 675.477 310.289 676.025 310.289C677.487 310.289 678.583 310.782 679.497 311.93C680.594 313.407 682.055 314.064 684.065 314.392C686.806 314.884 689.181 316.033 690.095 318.658C690.826 320.3 691.739 322.104 693.201 323.417C694.48 324.402 696.49 324.566 698.134 325.059C698.499 325.059 698.865 324.895 699.047 324.895C699.596 325.058 700.144 325.386 700.692 325.715C700.327 326.207 699.961 327.028 699.596 327.028C697.951 327.028 696.125 327.028 694.48 326.7C693.018 326.043 691.739 325.386 689.912 324.731Z" fill="black"/>
<path d="M601.478 101.217C600.747 95.1455 606.959 88.9089 613.72 87.2682C614.816 87.1041 615.912 87.1041 617.009 87.1041C616.461 87.9248 615.912 88.7447 615.181 89.4013C611.162 92.8475 607.873 96.7862 606.411 101.71C606.045 102.858 606.045 104.335 605.68 105.484C605.314 106.468 604.584 107.289 604.036 108.11C603.488 107.289 602.574 106.468 602.208 105.648C601.843 104.171 601.843 102.695 601.478 101.217Z" fill="black"/>
<path d="M663.966 291.417C662.87 290.924 661.591 290.76 660.495 290.103C657.206 287.97 654.465 285.181 652.09 282.063C649.166 278.124 646.243 274.021 642.954 270.247C639.117 265.816 635.462 261.386 629.981 258.431C628.337 257.611 626.51 257.119 624.682 256.626C624.134 256.462 623.586 256.626 623.221 256.462C622.124 256.298 621.211 255.97 621.211 254.821C621.394 254.001 622.855 253.344 623.952 253.836C625.596 254.493 627.241 254.985 628.702 255.805C631.443 257.447 634.549 258.923 636.925 260.893C639.848 263.354 642.04 266.472 644.416 269.262C648.801 274.35 652.82 279.601 657.206 284.688C658.85 286.657 661.226 288.135 663.236 289.776C663.418 289.94 663.784 290.268 663.966 290.432C664.149 290.924 663.966 291.252 663.966 291.417Z" fill="black"/>
<path d="M601.66 404.978C600.199 404.814 598.737 405.143 597.458 406.292C597.093 406.783 595.996 407.276 595.63 406.947C594.9 406.455 593.986 405.799 593.986 404.978C593.804 403.665 593.073 403.009 591.976 402.189C590.697 401.368 589.784 400.055 588.687 398.907C588.505 398.743 588.505 398.25 588.687 398.086C588.87 397.922 589.235 397.758 589.601 397.922C590.149 398.086 590.515 398.25 591.063 398.414C592.342 398.907 593.256 398.743 594.352 398.086C595.996 396.937 596.91 397.101 598.371 398.414C600.199 400.219 600.93 400.383 603.488 399.563C604.401 399.234 605.497 398.907 606.411 398.907C607.325 398.907 608.603 399.398 608.969 400.055C609.334 400.712 609.151 401.861 608.603 402.516C607.325 404.322 605.132 404.978 601.66 404.978Z" fill="black"/>
<path d="M586.129 368.875C587.409 369.696 588.322 370.188 589.053 370.845C590.88 372.485 592.707 374.127 594.534 375.931C595.63 377.08 595.813 379.214 594.9 379.706C593.438 380.527 592.159 379.87 590.88 379.049C589.784 378.229 588.322 377.901 586.861 378.393C581.562 380.363 578.09 377.573 574.618 374.782C574.253 374.455 574.253 373.634 574.07 372.978C574.801 372.978 575.532 372.649 576.08 372.814C576.811 372.978 577.542 373.306 578.273 373.634C580.283 374.618 582.475 374.455 584.485 373.962C585.946 373.634 586.312 372.649 586.129 371.5C585.946 370.845 586.129 370.188 586.129 368.875Z" fill="black"/>
<path d="M641.31 455.687C641.31 452.733 642.04 449.779 643.868 447.318C644.598 446.497 645.877 446.005 646.791 445.348C646.974 446.333 647.339 447.318 647.339 448.303C647.339 449.287 647.157 450.108 648.618 450.6C648.983 450.764 649.349 451.749 649.166 452.241C648.618 454.046 647.887 455.687 647.522 457.493C646.974 459.79 646.791 461.924 646.243 464.221C646.06 465.042 645.512 465.698 645.329 466.354C644.598 465.862 643.502 465.534 643.32 464.877C641.492 462.088 641.492 458.806 641.31 455.687Z" fill="black"/>
<path d="M619.201 354.269C619.018 355.09 618.835 355.911 618.653 356.567C617.374 362.147 617.009 367.562 619.018 372.978C619.383 373.798 619.566 374.618 619.566 375.439C619.932 376.916 619.018 377.573 617.374 377.409C615.729 377.245 614.268 377.08 612.623 377.08C610.979 376.916 608.238 375.111 608.055 373.634C608.055 373.306 608.603 372.814 608.969 372.485C609.151 372.321 609.334 372.485 609.699 372.485C612.623 372.978 613.72 372.157 614.085 369.367C614.45 365.921 614.816 362.311 615.364 358.865C615.729 356.895 616.643 355.09 618.653 353.941C618.835 354.105 619.018 354.105 619.201 354.269Z" fill="black"/>
<path d="M633.818 351.151C635.097 353.121 635.462 355.254 635.462 357.551C635.097 361.982 633.818 366.085 631.808 370.188C630.347 373.142 629.067 376.26 628.154 379.378C627.606 380.855 627.971 382.496 627.971 384.137C627.971 384.465 627.789 384.957 627.606 385.285C627.241 385.121 626.693 384.958 626.327 384.629C626.144 384.465 625.961 384.137 625.778 383.809C624.134 380.363 623.952 376.916 625.961 373.47C627.423 371.009 628.885 368.547 630.347 366.085C632.904 361.982 633.818 357.551 633.27 352.793C633.27 352.3 633.453 351.644 633.453 351.151C633.27 351.151 633.453 351.151 633.818 351.151Z" fill="black"/>
<path d="M633.088 115.166C633.818 113.689 634.184 112.212 635.097 111.063C637.473 108.11 640.031 105.32 642.588 102.53C643.137 102.038 644.598 101.71 645.512 101.874C647.157 102.038 647.522 102.695 646.974 104.171C646.243 105.977 646.243 105.977 648.435 106.632C648.801 106.797 649.349 106.797 649.532 107.125C649.897 107.617 650.628 108.274 650.628 108.602C650.446 109.095 649.532 109.423 648.983 109.751C648.801 109.915 648.253 109.751 647.887 109.751C643.32 109.587 639.665 111.063 637.107 114.674C636.742 115.166 636.194 115.823 635.645 116.151C635.28 116.479 634.549 116.644 634.184 116.479C633.636 116.315 633.453 115.659 633.088 115.166Z" fill="black"/>
<path d="M509.937 336.874C507.562 336.382 506.282 334.577 504.821 333.1C501.898 329.817 500.253 326.043 499.157 322.104C498.974 321.449 498.609 320.956 498.243 319.807C497.695 320.628 497.33 321.12 497.147 321.612C496.599 322.597 496.233 323.417 495.685 324.402C495.502 324.731 494.772 324.895 494.406 325.222C494.041 324.731 493.493 324.238 493.493 323.746C493.493 323.089 493.676 322.433 494.041 321.776C495.137 319.643 496.416 317.51 497.695 315.376C498.243 314.555 498.974 313.9 499.522 313.243C499.705 313.407 500.071 313.407 500.253 313.571C500.436 314.228 500.801 314.884 500.801 315.704C501.167 319.971 503.36 323.582 505.186 327.356C506.282 329.817 507.379 332.28 509.571 334.084C510.12 334.577 510.303 335.725 510.668 336.382C510.12 336.546 509.937 336.71 509.937 336.874Z" fill="black"/>
<path d="M641.675 351.644C642.04 351.972 642.223 352.465 642.588 352.793C644.781 356.567 644.781 360.505 643.502 364.608C642.588 367.562 641.858 370.516 641.127 373.47C640.579 375.931 640.762 378.393 641.858 380.691C642.04 381.183 642.406 381.839 642.223 382.331C642.04 382.824 641.675 383.48 641.31 383.809C640.944 383.973 640.213 383.48 639.848 383.152C638.021 380.691 637.107 378.229 637.838 375.275C639.117 369.86 640.213 364.444 641.127 359.029C641.492 357.223 641.127 355.418 640.944 353.613C640.944 352.957 640.944 352.464 640.944 351.808C641.31 351.644 641.492 351.644 641.675 351.644Z" fill="black"/>
<path d="M655.013 357.223C655.013 360.178 655.013 362.967 655.013 365.921C655.013 366.742 655.561 367.562 655.561 368.382C655.561 368.875 655.378 369.696 655.013 370.024C654.648 370.188 653.734 370.024 653.186 369.696C651.359 368.711 651.176 366.906 651.176 365.264C651.176 361.49 651.542 357.88 651.542 354.105C651.542 351.151 651.359 348.033 649.897 345.244C649.715 345.08 649.715 344.915 649.715 344.751C649.897 344.259 649.897 343.602 650.08 343.11C650.628 343.438 651.359 343.602 651.542 344.095C654.465 347.869 655.013 352.464 655.013 357.223Z" fill="black"/>
<path d="M471.384 162.593C471.75 161.444 471.932 160.131 472.48 158.983C475.221 153.239 477.779 147.495 482.164 142.572C483.26 141.259 484.722 140.11 486.184 138.961C486.549 138.633 487.281 138.633 487.829 138.633C487.829 139.126 488.011 139.946 487.829 140.275C486.366 142.408 484.722 144.542 483.078 146.511C480.337 149.793 478.145 153.403 476.866 157.342C476.134 159.803 473.76 161.116 471.932 162.921C471.75 162.757 471.567 162.593 471.384 162.593Z" fill="black"/>
<path d="M684.613 264.668C684.248 265.488 684.248 266.308 683.7 266.965C680.411 270.903 680.045 275.335 680.776 280.093C680.959 281.078 680.959 282.227 680.776 283.211C680.594 284.524 679.863 285.509 678.401 285.837C677.305 286.001 676.025 284.852 676.025 283.375C676.025 280.914 676.025 278.288 676.574 275.827C677.305 271.396 680.228 267.95 683.517 264.832C683.7 264.668 684.065 264.503 684.248 264.339C684.43 264.503 684.43 264.503 684.613 264.668Z" fill="black"/>
<path d="M531.315 375.931C532.046 377.409 532.959 378.721 533.69 380.198C534.786 382.167 536.065 383.809 538.806 384.137C540.451 384.301 541.364 385.121 540.999 386.763C540.816 387.419 541.364 388.24 541.364 389.06C541.364 389.716 541.547 390.537 541.364 391.194C540.999 392.834 539.354 393.491 538.075 392.342C534.604 389.06 530.949 385.614 530.584 380.691C530.401 379.214 530.584 377.737 530.584 376.26C530.949 375.931 531.132 375.931 531.315 375.931Z" fill="black"/>
<path d="M531.498 310.453C530.767 312.094 529.67 312.586 528.026 312.422C525.102 312.258 522.727 310.946 520.717 309.14C520.169 308.648 519.438 308.484 518.89 308.319C518.707 308.976 518.342 309.633 518.342 310.125C518.707 313.9 519.255 317.674 519.803 321.284C519.803 321.612 519.804 321.94 519.987 322.433C519.804 322.433 519.621 322.597 519.438 322.597C518.707 321.284 517.977 320.135 517.246 318.822C515.236 314.555 515.053 310.125 516.698 305.858C516.881 305.53 516.881 305.201 517.063 304.873C517.611 304.217 518.342 303.725 518.89 303.233C519.438 303.725 520.169 304.217 520.535 304.873C522.544 308.155 525.102 310.453 529.67 310.125C530.036 310.125 530.584 310.289 531.498 310.453Z" fill="black"/>
<path d="M588.505 111.228C589.967 112.048 591.611 112.869 592.89 113.853C594.717 115.659 596.178 117.628 597.823 119.597C599.285 121.402 600.747 123.044 603.305 123.863C603.67 124.028 604.036 124.192 604.218 124.356C604.584 124.684 604.949 125.177 605.314 125.669C604.766 125.997 604.401 126.49 603.67 126.654C600.564 127.474 597.823 126.326 595.63 123.372C594.534 121.895 593.621 120.417 592.707 118.941C591.428 117.135 590.149 115.33 589.053 113.525C588.687 113.033 588.505 112.541 588.139 112.048C587.957 111.556 588.322 111.392 588.505 111.228Z" fill="black"/>
<path d="M611.71 122.715C607.873 123.208 604.949 120.91 602.574 118.284C600.564 116.151 599.285 113.526 597.823 111.063C597.641 110.735 597.823 110.079 598.006 110.079C598.371 109.915 598.919 109.915 599.285 110.243C600.199 110.899 600.929 111.72 601.66 112.377C604.218 114.51 606.959 116.479 609.699 118.448C610.248 118.941 611.162 119.105 612.075 119.269C612.44 119.433 612.988 119.269 613.172 119.433C614.085 120.09 615.729 120.91 615.729 121.73C615.729 123.044 613.902 122.551 612.806 122.715C612.623 122.715 612.44 122.715 611.71 122.715Z" fill="black"/>
<path d="M565.848 375.931C566.762 377.901 565.848 379.542 565.3 381.183C563.656 386.927 559.819 391.686 556.346 396.773C555.981 397.265 555.433 397.758 554.885 397.922C554.337 398.086 553.424 398.25 552.875 397.922C552.51 397.758 552.144 396.773 552.327 396.445C553.058 393.655 554.52 391.358 556.713 389.552C560.549 386.434 562.742 382.66 564.021 378.393C564.204 377.737 564.569 377.08 564.934 376.424C565.3 376.26 565.482 376.096 565.848 375.931Z" fill="black"/>
<path d="M558.357 344.751C557.991 345.736 557.991 346.884 557.443 347.869C555.981 350.659 554.52 353.613 552.692 356.239C550.866 358.7 549.952 361.49 549.403 364.28C549.403 364.772 548.855 365.429 548.49 365.921C548.125 365.429 547.394 364.936 547.394 364.444C546.297 360.013 547.394 355.911 550.5 352.3C552.692 349.838 554.885 347.541 557.078 345.08C557.261 344.915 557.626 344.751 557.809 344.423C557.991 344.587 558.174 344.751 558.357 344.751Z" fill="black"/>
<path d="M504.456 220.03C504.09 222.164 503.908 224.297 503.542 226.267C502.263 231.518 500.071 236.605 495.32 240.052C494.406 240.707 493.676 241.364 492.396 240.544C491.117 239.723 491.118 238.738 492.031 237.589C493.493 235.949 495.32 234.472 496.782 232.831C499.522 229.877 501.532 226.43 502.811 222.656C503.176 221.672 503.542 220.851 504.09 219.866C504.09 220.03 504.273 220.03 504.456 220.03Z" fill="black"/>
<path d="M513.592 103.186C514.505 101.546 515.236 99.4124 516.698 98.2634C521.631 94.3248 527.478 94.6531 533.325 96.1296C534.056 96.2937 535.152 97.4427 534.969 98.0993C534.786 99.2483 533.508 99.0842 532.228 99.0842C528.209 98.5917 524.189 98.0993 520.352 99.9041C518.707 100.725 517.063 101.874 515.601 102.859C515.236 103.186 514.688 103.514 514.322 103.679C513.957 103.514 513.774 103.35 513.592 103.186Z" fill="black"/>
<path d="M671.64 346.393C671.823 346.884 672.188 347.213 672.188 347.705C673.102 352.793 673.285 358.044 671.64 362.967C671.275 364.116 670.362 365.1 669.447 366.085C668.717 366.742 667.803 366.578 667.438 365.593C667.255 364.444 667.073 363.296 667.255 362.147C667.621 360.013 668.351 358.044 668.717 356.075C669.265 353.285 669.631 350.659 670.179 347.869C670.179 347.377 670.544 346.884 670.727 346.393C671.092 346.393 671.275 346.393 671.64 346.393Z" fill="black"/>
<path d="M718.05 236.77C717.867 237.425 717.867 237.918 717.502 238.41C716.589 240.216 715.126 240.38 714.03 238.738C711.838 235.949 709.828 233.323 707.635 230.533C706.905 229.549 706.357 228.564 707.453 227.415C708.549 226.103 709.645 225.938 711.107 227.087C711.29 227.251 711.472 227.415 711.655 227.579C713.482 230.041 715.492 232.503 717.319 235.128C717.867 235.621 717.867 236.277 718.05 236.77Z" fill="black"/>
<path d="M626.327 470.621C625.961 473.903 624.317 475.708 620.845 476.529C620.297 476.693 619.566 477.185 619.201 477.677C618.287 478.662 617.739 478.662 617.009 477.513C615.912 475.708 616.094 473.903 617.739 472.098C618.47 471.442 618.835 470.621 619.383 469.8C620.297 468.159 623.221 466.846 624.865 467.831C625.596 468.488 625.778 469.8 626.327 470.621Z" fill="black"/>
<path d="M451.468 165.875C454.94 166.531 457.863 165.547 460.604 164.07C461.335 163.742 462.066 163.906 462.066 164.891C462.066 166.531 462.796 167.352 464.624 167.516C465.902 167.68 466.085 168.337 465.354 169.322C463.344 171.783 459.142 172.44 456.401 170.798C454.94 169.814 453.478 168.665 452.016 167.516C451.651 167.188 451.468 166.695 451.286 166.367C451.286 166.204 451.468 166.04 451.468 165.875Z" fill="black"/>
<path d="M597.458 341.141C597.275 338.68 598.006 336.382 599.833 334.413C601.295 332.935 602.574 331.623 604.036 330.146C604.401 329.817 604.949 329.653 605.497 329.489C605.497 329.982 605.497 330.474 605.314 330.966C604.584 332.935 603.67 334.741 602.939 336.71C602.756 337.366 602.756 338.187 602.756 339.008C602.939 341.141 602.208 342.782 600.93 344.423C599.833 345.736 598.737 345.572 597.823 344.259C597.641 343.766 597.458 343.274 597.458 342.782C597.458 342.126 597.458 341.633 597.458 341.141Z" fill="black"/>
<path d="M495.868 268.278C494.772 269.754 493.858 271.068 492.944 272.217C492.031 273.201 491.118 274.021 490.021 274.842C488.925 275.499 487.829 275.827 486.549 275.006C485.27 274.35 483.992 273.857 482.712 273.201C481.068 272.38 480.885 270.903 482.53 270.083C483.809 269.262 485.27 268.605 485.818 267.129C485.818 266.965 486.366 266.801 486.549 266.801C486.915 266.965 487.281 267.293 487.281 267.621C487.281 267.95 487.098 268.442 487.098 268.77C487.098 269.426 487.098 270.247 487.463 270.411C487.829 270.739 488.925 270.575 489.473 270.411C490.569 269.919 491.3 269.098 492.396 268.606C493.31 268.442 494.589 268.442 495.868 268.278Z" fill="black"/>
<path d="M568.771 431.399C568.223 432.056 567.675 432.712 566.945 433.205C566.03 433.861 564.934 433.369 564.569 432.548C562.559 429.266 560.549 425.82 558.539 422.374C558.357 421.881 558.357 421.225 558.539 420.732C558.905 419.748 559.819 419.584 560.549 420.404L560.732 420.568C562.194 423.687 564.934 426.148 567.31 428.774C567.858 429.43 568.223 430.415 568.771 431.399Z" fill="black"/>
<path d="M485.088 312.258C482.712 312.258 481.616 310.289 482.712 308.484C484.174 305.53 489.655 303.233 493.127 304.053C494.224 304.381 494.406 304.873 493.676 305.53C493.127 306.186 492.396 306.679 491.483 307.007C490.204 307.663 489.107 308.319 488.742 309.633C488.011 311.273 486.733 312.094 485.088 312.258Z" fill="black"/>
<path d="M591.976 78.2423C592.342 78.0782 592.707 78.0782 593.073 77.914C595.265 77.2576 597.275 76.6012 599.467 75.9448C601.295 75.4524 603.122 75.1243 604.949 74.7961C605.68 74.7961 606.594 75.1243 606.959 75.6166C607.142 75.9449 606.777 76.7653 606.411 77.2577C606.045 77.75 605.68 78.2422 605.314 78.7346C604.401 80.0474 603.488 80.7038 601.66 80.0474C600.747 79.7192 599.467 80.0475 598.554 79.8833C596.362 79.5551 594.169 79.2269 591.976 78.8987C591.794 78.5705 591.794 78.4064 591.976 78.2423Z" fill="black"/>
<path d="M593.256 420.077C595.996 420.732 598.737 421.225 601.478 422.045C602.026 422.21 602.756 422.866 602.939 423.523C602.939 423.851 602.208 424.671 601.66 424.835C600.381 425.163 599.833 425.82 599.285 426.969C599.102 427.625 598.371 428.445 597.823 428.445C597.093 428.445 596.361 427.789 595.813 427.297C594.352 425.492 593.072 423.523 591.794 421.553C591.611 421.225 591.428 420.732 591.611 420.568C592.159 420.24 592.524 420.24 593.256 420.077Z" fill="black"/>
<path d="M483.992 292.073C484.54 291.417 484.722 291.088 485.088 290.76C487.281 289.448 489.655 288.791 492.031 289.776C494.406 290.924 496.598 290.103 498.791 289.448C499.339 289.284 499.887 289.448 500.619 289.448C500.436 290.103 500.436 290.924 500.071 291.088C498.426 292.073 496.782 293.058 494.954 293.878C493.127 294.699 491.3 294.699 489.838 293.058C488.742 291.745 487.281 291.253 485.453 292.073C484.905 292.237 484.722 292.073 483.992 292.073Z" fill="black"/>
<path d="M700.875 306.843C701.058 307.335 701.423 307.827 701.606 308.319C702.519 310.617 703.25 312.915 704.164 315.048C704.894 316.853 704.894 318.658 703.798 320.299C703.433 320.792 702.702 321.449 701.971 321.449C701.606 321.449 700.875 320.792 700.509 320.135C700.144 319.479 699.779 318.658 699.779 317.838C699.596 314.555 699.779 311.273 699.779 307.827C699.779 307.335 699.961 307.007 700.144 306.515C700.51 306.843 700.692 306.843 700.875 306.843Z" fill="black"/>
<path d="M561.646 443.215C561.463 445.677 562.011 448.139 560.184 450.272C559.453 451.092 558.905 451.913 557.626 451.421C556.346 450.928 556.346 449.779 556.53 448.794C556.713 447.81 557.261 446.826 557.626 445.841C558.174 444.2 558.539 442.394 558.905 440.754V440.59C559.087 439.441 559.087 437.799 560.549 437.799C561.828 437.799 561.463 439.441 561.463 440.426C561.646 441.41 561.646 442.394 561.646 443.215Z" fill="black"/>
<path d="M597.275 370.68C595.996 370.188 594.169 369.696 592.707 368.711C591.245 367.726 589.967 366.414 588.687 365.265C588.322 364.936 588.139 364.608 588.139 364.116C588.139 363.46 588.322 362.967 588.505 362.311C589.053 362.475 589.784 362.475 590.149 362.803C591.246 363.46 592.159 364.116 593.073 364.936C594.534 366.249 596.545 366.742 598.554 367.07C599.467 367.234 601.112 367.726 601.295 368.382C601.66 369.696 600.016 369.86 598.919 370.352C598.554 370.516 598.189 370.516 597.275 370.68Z" fill="black"/>
<path d="M706.174 307.827C706.722 308.155 706.905 308.155 706.905 308.319C708.366 312.258 710.376 316.033 709.463 320.464C709.279 320.956 709.279 321.449 708.914 321.94C708.731 322.268 708.183 322.761 707.818 322.761C707.453 322.761 706.905 322.268 706.539 321.94C706.174 321.284 705.808 320.628 705.808 319.971C705.625 316.525 705.625 312.915 705.625 309.468C705.625 308.976 705.99 308.484 706.174 307.827Z" fill="black"/>
<path d="M537.345 341.141C537.71 341.469 538.623 341.798 538.623 342.126C538.623 342.618 538.258 343.274 537.893 343.602C535.882 345.08 533.69 346.392 531.68 347.705C530.584 348.362 529.67 349.182 528.391 348.198C527.295 347.213 527.661 346.064 528.391 345.08C530.401 342.29 533.508 341.305 537.345 341.141Z" fill="black"/>
<path d="M631.26 462.744C631.443 461.924 631.626 461.103 631.808 460.282C631.808 459.954 632.356 459.79 632.539 459.626C632.722 459.954 633.27 460.118 633.088 460.446C632.904 462.58 634.732 463.728 635.828 465.37C636.559 466.518 637.29 467.667 637.655 468.98C637.838 469.8 636.925 470.785 636.559 471.606C635.645 471.113 634.184 470.949 633.818 470.293C632.722 467.995 631.808 465.534 630.895 463.072C631.078 462.908 631.26 462.908 631.26 462.744Z" fill="black"/>
<path d="M534.421 365.1C534.238 364.444 533.873 363.624 534.056 362.967C534.604 361.326 535.152 359.521 536.065 358.044C537.893 355.582 540.268 353.449 542.46 350.987C543.192 350.167 543.74 349.182 544.47 348.198C544.653 348.198 544.836 348.198 545.018 348.362C544.836 349.347 544.836 350.331 544.288 351.151C543.374 352.629 542.46 353.941 541.182 355.09C538.989 357.059 537.71 359.357 536.797 361.982C536.43 362.967 535.882 363.952 535.334 364.936C534.969 365.265 534.786 365.1 534.421 365.1Z" fill="black"/>
<path d="M521.448 358.044C521.266 358.7 521.266 359.357 521.083 360.013C520.535 361.818 519.803 362.475 518.525 362.147C516.881 361.818 515.601 360.342 515.966 358.865C516.149 358.372 516.332 357.88 516.514 357.223C517.246 355.582 517.977 353.941 518.89 352.3C519.073 351.972 519.438 351.808 519.803 351.48C519.987 351.808 520.535 351.972 520.535 352.3C520.9 354.269 521.266 356.239 521.448 358.044Z" fill="black"/>
<path d="M650.263 297.16C649.898 296.176 649.349 295.191 648.801 294.042C648.618 293.55 648.801 292.894 648.801 292.237C649.532 292.401 650.446 292.237 650.628 292.566C651.907 294.042 653.186 295.684 654.1 297.324C654.83 298.966 653.186 301.919 651.176 302.74C650.811 302.904 649.715 302.576 649.715 302.248C649.532 301.427 649.532 300.606 649.715 299.786C649.715 298.966 650.08 298.145 650.263 297.16Z" fill="black"/>
<path d="M520.352 90.7144C516.881 92.5192 513.592 94.3248 510.12 95.9654C509.754 96.1296 509.389 96.2937 509.023 96.1296C508.293 95.9662 507.562 95.8021 507.197 95.3096C507.014 95.1455 507.197 94.1607 507.562 93.8324C508.293 93.1758 509.206 92.5192 510.12 92.1917C512.86 91.371 515.418 90.5503 518.159 89.8937C518.707 89.7296 519.438 89.8937 519.987 89.8937C520.352 90.222 520.352 90.5503 520.352 90.7144Z" fill="black"/>
<path d="M574.436 421.225C573.705 421.717 573.34 422.21 572.974 422.21C571.695 422.374 571.33 423.194 571.512 424.179C571.512 424.671 571.147 425.163 570.964 425.656C570.416 425.492 569.685 425.328 569.502 424.999C568.041 423.359 566.579 421.553 565.3 419.912C564.934 419.584 565.3 418.763 565.117 418.271C565.665 418.271 566.396 418.271 566.945 418.435C568.406 418.763 569.685 419.092 571.147 419.584C572.243 419.912 573.157 420.404 574.436 421.225Z" fill="black"/>
<path d="M584.302 408.096C584.668 406.947 585.216 405.307 585.764 403.665C585.946 403.337 586.678 403.009 587.226 403.009C587.409 403.009 587.957 403.665 587.957 403.994C587.774 406.783 587.591 409.573 587.409 412.363C587.409 412.527 587.409 412.856 587.226 413.02C586.861 413.512 586.312 414.004 585.946 414.661C585.581 414.168 585.033 413.512 585.033 412.856C584.668 411.543 584.668 410.065 584.302 408.096Z" fill="black"/>
<path d="M540.633 364.444C540.633 367.726 540.816 371.172 540.816 374.455C540.816 374.947 540.085 375.439 539.719 376.096C539.354 375.603 538.806 375.111 538.623 374.618C537.893 371.665 537.162 368.875 538.806 365.921C539.171 365.265 539.719 364.772 540.085 364.28C540.268 364.28 540.451 364.444 540.633 364.444Z" fill="black"/>
<path d="M488.742 184.747C486.001 185.732 483.444 186.881 480.52 187.701C474.49 189.178 469.557 192.296 465.537 196.727C464.989 197.384 464.076 197.876 463.162 198.86C464.624 193.938 481.616 184.583 488.559 184.583C488.559 184.419 488.559 184.583 488.742 184.747Z" fill="black"/>
<path d="M491.848 226.758C491.483 229.385 490.387 231.518 488.194 233.159C487.463 233.651 486.733 233.487 486.915 232.667C487.098 230.369 487.281 227.907 489.473 226.102C489.838 225.774 490.569 225.446 490.935 225.61C491.483 225.774 491.666 226.43 491.848 226.758Z" fill="black"/>
<path d="M465.537 180.317C465.354 180.644 465.354 181.137 464.989 181.301C463.162 183.599 461.335 185.732 459.507 188.029C459.325 188.193 459.142 188.522 458.959 188.522C458.411 188.686 457.681 188.85 457.133 188.85C457.133 188.358 456.767 187.701 456.95 187.209C457.133 186.717 457.681 186.224 458.229 185.732C460.056 184.091 462.066 182.286 463.893 180.644C464.258 180.317 464.806 180.153 465.172 179.824C465.354 180.153 465.537 180.317 465.537 180.317Z" fill="black"/>
<path d="M452.747 252.195C451.834 253.18 451.285 253.836 450.555 254.329C449.823 253.508 448.91 252.688 448.545 251.703C448.362 251.21 449.458 250.39 450.006 249.734C450.737 250.719 451.651 251.374 452.747 252.195Z" fill="black"/>
</g>
</svg>
