<svg width="709" height="524" viewBox="0 0 709 524" fill="none" xmlns="http://www.w3.org/2000/svg">
<mask id="mask0_4_239" style="mask-type:alpha" maskUnits="userSpaceOnUse" x="0" y="0" width="709" height="524">
<path d="M0 0H709V524H0V0Z" fill="#D9D9D9"/>
</mask>
<g mask="url(#mask0_4_239)">
<path d="M355.295 515.914C511.203 515.914 637.591 402.545 637.591 262.698C637.591 122.85 511.203 9.4816 355.295 9.4816C199.388 9.4816 73 122.85 73 262.698C73 402.545 199.388 515.914 355.295 515.914Z" fill="#19252F"/>
<path d="M637.591 262.698C637.591 244.974 635.581 227.907 631.744 211.169C588.257 163.742 522.298 133.71 448.48 133.71C317.291 133.71 211.133 229.056 211.133 346.556C211.133 412.527 244.57 471.441 297.192 510.499C316.011 513.945 335.379 515.914 355.295 515.914C511.334 515.914 637.591 402.517 637.591 262.698Z" fill="white"/>
<path d="M235.799 299.458C234.521 300.443 233.425 301.591 231.962 302.576C229.587 304.217 227.212 305.694 225.019 307.335C223.375 308.484 222.826 311.766 223.923 313.407C224.471 314.228 225.202 315.048 225.933 315.868C226.298 316.197 227.029 316.361 227.577 316.361C229.221 316.361 230.866 316.197 232.51 316.361C233.242 316.361 233.79 317.017 234.521 317.346C233.973 318.002 233.425 319.151 232.51 319.315C231.78 319.479 230.501 319.151 229.77 318.658C228.673 318.002 227.943 318.166 227.577 319.315C226.664 322.433 227.76 323.582 231.232 324.895C235.069 326.207 236.713 328.668 237.261 331.951C237.444 332.771 237.627 333.92 238.357 334.577C241.098 337.531 243.657 340.649 247.493 342.618C248.955 343.274 250.782 343.602 252.426 344.095C253.523 344.423 255.167 344.423 255.35 345.08C256.081 346.556 256.629 348.362 255.35 350.002C254.802 350.495 254.254 350.987 253.706 351.48C250.417 354.269 250.6 356.403 253.706 359.193C255.35 360.67 256.447 362.475 257.725 364.116C259.004 365.757 260.101 367.563 261.38 369.367C262.658 371.173 263.938 372.814 265.217 374.618C266.313 376.26 265.582 378.229 263.755 379.214C262.841 379.706 261.928 380.198 261.197 380.855C259.552 382.66 257.177 383.645 254.985 383.645C250.6 383.809 247.311 385.778 244.205 387.912C240.002 390.865 235.251 393.163 230.501 395.296C225.202 397.594 219.721 399.399 214.605 401.861C208.757 404.486 203.094 407.44 197.429 410.558C191.948 413.512 186.649 416.794 181.168 419.912C179.157 421.061 176.965 422.21 174.773 423.03C172.58 423.851 170.388 424.343 168.012 424.343C164.358 424.343 160.886 425.163 157.597 426.148C153.943 427.297 150.289 428.774 146.634 430.251C145.903 430.579 145.538 431.072 144.624 431.728C141.701 428.61 138.412 425.163 135.306 421.717C104.61 387.255 85.242 348.198 77.0197 304.709C73.1827 284.196 72.0864 263.519 74.0963 242.677C78.4815 194.102 96.753 149.957 129.642 110.899C171.484 61.1753 226.664 29.5027 294.451 15.5536C321.128 10.1381 348.352 8.497 375.759 10.3022C467.665 16.21 550.984 62.4881 597.942 133.71C618.406 164.562 631.013 197.876 635.581 233.652C643.073 293.386 628.821 348.69 593.191 399.727C592.461 400.876 591.729 401.04 590.45 400.547C581.862 397.429 573.275 394.312 564.687 391.358C564.322 391.194 551.349 387.583 550.801 387.419C547.329 385.778 544.041 384.301 540.386 382.824C537.28 381.675 534.174 380.855 530.885 380.034C527.413 379.049 524.125 378.065 521.018 376.424C519.009 375.439 516.633 375.111 514.441 374.455C513.162 373.963 511.7 373.634 510.786 372.814C508.594 371.009 506.036 370.845 503.295 371.173C500.737 371.336 498.362 371.829 495.987 372.321C493.063 372.814 491.418 374.619 489.957 376.916C488.495 379.049 486.668 381.183 484.658 382.988C481.186 386.27 478.994 393.163 484.658 396.773C485.389 397.265 485.937 397.922 486.485 398.578C487.581 399.727 487.033 400.876 485.389 401.204C482.649 401.696 479.725 402.189 477.167 402.845C474.426 403.665 472.782 405.635 471.137 407.768C469.31 410.394 467.483 413.184 465.29 415.645C463.646 417.614 461.27 418.599 458.712 418.435C455.607 418.107 453.779 419.584 452.317 421.553C451.952 421.881 451.769 422.374 451.404 422.702C448.298 424.835 448.846 427.626 449.942 430.251C450.673 431.892 451.404 433.369 452.134 435.01C452.683 436.323 452.683 437.636 451.769 438.948C449.942 441.738 448.115 444.528 445.009 446.333C443.547 447.154 442.085 448.139 440.989 449.287C438.066 452.241 436.421 455.688 435.507 459.461C434.411 464.221 431.488 467.831 426.555 469.637C422.901 470.949 419.246 472.262 415.409 473.083C410.476 474.231 406.273 476.693 402.802 479.811C398.964 483.422 394.762 486.211 389.646 487.524C387.636 488.016 385.261 488.016 383.069 488.18C381.972 488.18 380.693 488.016 379.414 488.016C377.769 488.016 376.491 488.508 375.577 489.822C374.663 491.134 373.385 492.283 372.105 493.432C370.461 494.908 367.172 494.745 364.979 493.268C364.797 493.104 364.614 492.94 364.249 492.775C362.421 491.298 360.777 490.806 358.219 492.119C354.199 494.089 347.987 492.283 345.611 489.001C344.15 486.868 342.322 484.898 340.861 482.765C339.948 481.452 338.851 481.288 337.389 481.452C335.197 481.616 333.187 481.944 330.994 481.944C328.802 481.944 327.34 480.959 326.244 479.319C325.513 478.17 324.051 477.513 322.955 476.529C319.666 473.903 316.195 471.277 312.906 468.652C312.723 468.488 312.54 468.324 312.357 468.159C311.809 467.503 310.713 466.846 311.444 465.698C312.174 464.713 313.454 464.549 314.55 465.042C315.646 465.534 316.56 466.026 317.656 466.518C319.666 467.339 321.858 468.159 324.051 468.652C326.427 469.144 328.802 469.637 330.812 470.949C332.638 472.262 333.735 472.098 335.197 470.621C337.572 468.159 339.216 465.206 339.4 461.759C339.4 460.775 339.4 459.79 339.4 458.806C339.582 458.149 339.948 457.492 340.13 456.836C340.861 457.164 342.14 457.328 342.505 457.985C343.967 460.61 344.698 463.236 343.419 466.19C342.322 468.816 340.861 471.277 338.486 473.083C337.572 473.739 337.572 474.395 338.486 475.052C340.313 476.201 341.957 477.513 343.602 478.662C344.15 479.155 344.698 479.647 345.246 480.14C346.16 481.124 348.352 481.78 349.266 481.288C350.91 480.468 351.641 478.991 350.728 477.349C349.997 475.873 350.18 474.724 350.91 473.411C351.458 472.426 352.189 471.77 353.469 472.098C354.382 472.426 355.295 473.083 355.478 473.739C355.843 475.873 356.027 478.334 354.199 480.14C353.469 480.795 353.469 481.452 354.199 481.944C354.747 482.273 355.661 482.437 356.392 482.273C356.94 482.273 357.305 481.616 357.671 481.288C358.402 480.631 359.132 480.139 360.229 480.959C360.412 481.124 361.325 480.959 361.69 480.795C362.97 480.468 363.883 480.304 364.797 481.452C365.527 482.273 366.807 482.929 367.72 483.586C368.451 482.601 369.365 481.616 369.73 480.467C370.644 478.006 371.192 475.38 371.922 472.755C372.105 472.098 372.654 471.442 373.202 470.785C374.115 469.801 375.211 468.98 376.673 469.473C378.135 470.129 379.048 471.277 379.232 472.919C379.232 474.067 378.866 475.38 380.876 475.216C381.972 475.216 383.069 476.365 384.347 475.38C385.078 474.888 385.992 475.052 386.357 475.873C386.905 477.349 388.001 477.185 388.915 476.365C389.464 475.873 390.377 475.38 390.56 474.888C391.29 473.083 392.753 472.919 394.579 472.919C398.233 472.919 402.253 469.637 402.253 466.355C402.253 465.042 402.07 463.893 400.609 463.072C399.696 462.416 398.964 461.759 398.233 461.103C396.589 459.461 396.772 456.672 398.233 455.031C399.33 453.882 400.426 453.882 401.522 454.867C402.07 455.359 402.802 455.688 403.715 456.344C404.263 455.031 404.629 454.046 404.994 453.061C406.273 449.123 407.735 445.021 408.648 441.082C409.197 438.62 408.831 435.83 408.466 433.205C408.1 430.251 407.369 427.461 406.821 424.507C406.821 424.343 406.639 424.179 406.639 424.015C402.437 418.763 402.802 412.692 402.07 406.783C402.07 406.62 402.07 406.62 401.888 406.292C401.157 407.276 400.609 408.261 399.878 408.917C399.33 409.41 398.599 409.574 397.868 409.901C397.503 409.245 396.955 408.425 397.137 407.768C397.686 405.963 398.599 404.158 399.33 402.353C399.513 401.861 400.244 401.368 400.609 401.368C402.253 401.204 402.619 400.055 403.167 399.071C403.715 398.086 402.985 396.937 401.705 396.445C400.426 395.953 399.513 396.28 399.147 397.265C398.416 399.399 397.868 401.532 397.32 403.829C397.137 404.322 397.32 404.979 396.955 405.307C396.407 405.963 395.859 406.292 395.127 406.783C394.579 406.127 393.666 405.471 393.666 404.814C393.666 403.173 394.031 401.368 394.214 399.727C394.397 398.578 394.397 397.594 393.118 397.101C392.204 396.773 391.473 396.445 390.925 397.758C390.012 399.727 388.55 401.04 385.626 401.204C385.809 400.219 385.809 399.563 385.992 398.743C386.175 397.594 386.357 396.445 384.895 395.952C383.799 395.625 382.337 396.445 381.789 397.758C381.606 398.25 381.241 398.743 380.876 399.235C380.145 400.219 379.048 400.219 378.683 399.071C378.135 397.758 377.221 397.429 375.759 397.758C374.115 398.25 373.385 399.235 373.567 400.547C373.933 402.845 374.115 405.143 372.47 406.947C371.922 407.604 371.009 407.932 370.278 408.425C369.73 407.604 368.999 406.947 368.816 406.128C368.633 404.158 368.633 402.189 368.816 400.219C368.999 397.265 366.807 396.116 364.614 396.116C363.701 396.116 362.787 396.445 361.873 396.773C360.046 397.758 358.402 397.594 356.757 396.609C355.478 395.952 353.834 395.296 352.738 394.476C352.006 393.983 351.824 392.998 351.458 392.178C352.372 392.178 353.469 391.85 354.382 392.178C355.295 392.506 356.209 393.327 357.123 393.655C357.671 393.983 358.584 394.147 359.132 394.312C359.316 393.983 359.498 393.819 359.498 393.819C359.498 392.998 359.498 391.522 359.681 391.522C360.777 391.358 362.238 391.194 363.335 391.522C366.259 392.343 369.182 393.327 372.105 393.983C373.385 394.312 374.846 394.147 376.308 393.983C378.318 393.655 379.048 392.834 379.048 391.029C379.048 389.06 379.78 388.732 381.606 389.552C382.886 390.209 384.165 391.194 385.626 391.522C388.367 392.343 391.108 393.163 394.031 393.819C396.041 394.147 397.137 392.506 396.041 391.029C394.762 389.06 393.118 387.419 391.838 385.45C391.473 384.958 391.29 384.137 391.108 383.48C391.838 383.48 392.753 383.316 393.301 383.48C396.955 384.629 398.964 387.419 401.34 389.88C403.167 391.85 405.177 392.998 408.1 392.343C410.476 391.85 411.754 392.67 411.206 394.804C410.658 397.429 409.745 400.055 408.466 402.517C406.273 407.112 404.994 411.543 406.821 416.466C408.283 420.241 409.38 424.179 410.293 427.953C410.841 430.087 410.476 432.384 410.841 434.518C411.206 437.308 411.937 439.933 412.669 442.723C413.399 445.677 413.217 448.631 411.572 451.421C410.658 452.897 409.745 454.375 409.745 456.344C409.745 457.328 409.197 458.313 408.648 459.134C407.735 460.282 408.283 461.267 409.197 462.088C410.11 462.908 411.024 462.252 411.937 461.759C412.302 461.595 412.851 461.431 413.034 461.103C415.409 457.657 419.429 455.359 420.89 451.585C421.621 449.451 421.621 447.154 421.986 445.021C421.986 444.528 421.986 444.036 422.352 443.708C422.901 443.051 423.631 442.559 424.362 442.066C424.727 442.723 425.458 443.379 425.458 444.036C425.641 446.826 426.92 447.646 429.844 446.497C430.209 446.333 430.757 446.005 430.757 445.512C431.67 442.723 432.767 439.933 430.757 437.143C430.026 436.159 429.844 435.01 429.661 433.861C429.296 432.548 430.026 431.892 431.488 431.563C432.218 431.399 433.133 430.908 433.498 430.251C434.594 427.79 436.969 426.312 438.614 424.507C440.076 422.866 441.172 421.225 442.268 419.42C442.634 418.927 442.268 417.614 441.72 417.122C441.172 416.794 439.893 416.958 439.162 417.286C436.787 418.435 435.873 418.107 434.594 415.974C434.411 415.645 434.229 415.317 434.046 414.989C433.681 414.661 433.133 414.496 432.585 414.168C432.402 414.661 432.218 415.153 432.218 415.481C432.218 416.302 432.218 416.959 432.218 417.779C432.036 419.256 430.392 420.896 428.747 420.733C428.199 420.733 427.468 419.912 427.103 419.256C426.92 419.092 426.92 418.599 426.92 418.271C426.92 417.123 426.372 416.63 424.91 416.959C423.083 417.287 421.073 417.614 419.246 417.614C415.409 417.45 413.217 415.481 412.669 412.199C412.302 409.902 413.217 409.41 415.591 410.066C417.419 410.722 419.429 411.543 421.256 412.035C422.718 412.527 423.631 411.707 423.631 410.394C423.631 409.41 423.266 409.245 422.169 409.081C418.332 408.917 417.053 408.096 415.957 404.814C415.591 403.501 414.861 402.517 413.582 401.861C412.302 401.204 412.12 399.891 412.669 398.907C413.034 398.25 414.13 397.758 415.043 397.758C416.871 397.922 417.053 396.937 417.419 395.625C417.784 394.312 418.149 392.998 418.88 392.014C419.246 391.358 420.342 391.029 421.073 390.701C421.438 391.522 421.986 392.178 421.986 392.998C421.986 394.476 421.621 395.789 421.438 397.265C421.256 398.25 421.073 399.399 421.256 400.383C421.256 401.04 421.986 401.696 422.352 402.189C422.901 401.861 423.814 401.532 424.179 401.04C425.641 398.743 427.103 396.609 428.199 394.147C429.112 392.178 429.113 389.88 429.661 387.747C429.844 386.927 429.844 385.942 430.209 385.285C430.574 384.629 431.488 383.973 432.036 383.973C433.133 383.809 433.681 384.629 433.863 385.614C434.594 388.24 434.777 390.865 433.863 393.655C433.681 394.312 433.681 394.968 433.498 395.625C436.056 395.132 436.421 395.461 436.239 397.594C436.239 398.414 435.873 399.235 435.325 400.055C432.218 405.307 435.691 411.871 442.268 412.528C445.009 412.856 448.115 411.05 446.653 407.768C446.105 406.455 445.923 405.143 445.557 403.829C445.191 402.845 444.826 401.861 444.278 400.876C442.817 398.743 443.365 397.101 445.557 395.625C447.384 394.476 449.028 393.327 450.673 392.014C451.221 391.522 451.769 390.865 451.952 390.209C452.134 389.552 451.952 388.24 451.586 388.076C450.673 387.912 449.577 387.912 448.846 388.404C447.749 389.06 447.019 390.045 446.105 390.865C444.095 392.506 441.537 392.014 440.806 389.716C439.345 385.122 438.796 380.527 439.71 375.767C440.441 372.485 440.258 368.875 440.441 365.429C440.441 364.936 439.893 364.444 439.528 364.116C438.614 363.296 437.517 362.803 436.787 361.982C435.69 360.833 435.69 359.193 437.152 358.865C440.624 358.044 440.989 355.254 442.268 352.957C442.451 352.793 442.451 352.464 442.634 352.3C443.182 351.808 443.913 350.823 444.461 350.987C445.191 351.151 445.923 351.808 446.288 352.464C447.201 354.269 446.836 356.075 446.105 358.044C445.009 360.833 445.191 360.998 447.749 362.803C449.394 363.952 451.038 365.1 452.501 366.414C453.049 366.906 453.414 367.89 453.779 368.711C454.327 369.696 453.779 370.68 452.683 371.173C451.586 371.665 450.308 371.665 449.394 370.68C448.663 370.024 448.115 369.203 447.384 368.547C446.653 367.727 445.557 367.563 444.826 368.382C442.634 370.845 443.365 379.378 448.48 380.691C451.404 381.347 453.597 380.691 455.789 378.065C457.799 375.767 459.261 373.47 459.626 370.516C459.809 369.039 460.174 367.726 457.982 367.234C457.616 367.234 457.433 365.921 457.616 365.429C459.078 362.967 459.444 360.506 459.626 357.716C459.626 357.223 459.444 356.567 459.261 355.911C458.895 356.239 458.53 356.403 458.347 356.403C457.433 356.567 456.52 357.223 455.789 356.896C455.241 356.731 454.875 355.582 454.693 354.926C454.327 351.972 453.597 349.182 451.952 346.72C451.769 346.556 451.769 346.393 451.586 346.229C451.404 345.244 451.221 344.095 451.221 343.111C452.501 343.438 453.962 343.438 455.241 343.931C456.155 344.259 456.885 345.244 457.616 345.9C458.895 347.049 460.174 348.198 462.184 348.69C464.377 349.182 464.377 350.987 464.377 353.613C464.377 354.926 464.377 356.239 464.559 357.551C464.742 357.551 464.925 357.716 465.107 357.716C465.656 357.387 466.387 357.059 466.752 356.567C469.676 353.285 470.589 349.511 470.041 345.408C469.858 343.766 469.676 342.126 469.493 340.484C469.31 339.336 469.128 338.187 468.762 337.202C468.031 335.726 468.214 334.413 469.128 333.1C470.224 331.623 471.137 329.982 469.31 328.177C468.762 328.505 468.213 328.833 467.665 329.161C466.387 330.146 464.925 329.817 464.194 328.505C463.646 327.684 462.733 327.028 462.184 326.043C461.818 325.223 461.453 324.074 461.818 323.417C462.001 322.925 463.463 322.597 464.377 322.761C467.117 323.089 469.858 323.582 472.782 324.074C475.705 315.54 472.05 307.991 468.944 300.279C468.579 302.248 468.214 304.217 467.848 306.186C467.483 307.664 467.3 309.14 466.752 310.617C466.021 312.915 465.107 315.212 464.011 317.51C463.829 318.002 462.915 318.658 462.367 318.658C461.818 318.658 461.088 318.002 460.722 317.346C459.809 315.54 459.809 313.571 460.54 311.602C462.184 306.843 463.829 302.084 465.29 297.324C465.473 296.833 465.29 296.34 465.107 295.684C464.925 294.37 464.559 293.058 464.559 291.745C464.559 291.417 464.925 290.76 465.29 290.596C465.655 290.432 466.387 290.76 466.752 291.088C467.483 291.745 468.031 292.566 468.762 293.386C469.31 294.042 470.041 294.206 470.954 293.714C473.147 292.73 475.157 288.135 474.791 286.33C474.426 283.539 474.061 280.914 473.695 278.124C473.33 275.99 472.965 274.021 472.599 271.888C472.417 270.903 472.417 269.919 472.782 269.098C473.147 268.278 474.061 267.621 474.791 266.801C475.522 267.457 476.984 268.114 477.167 268.935C477.532 270.739 477.532 272.708 477.532 274.678C477.532 278.124 477.349 281.57 477.532 285.017C477.532 285.673 478.446 286.33 478.994 286.986C479.725 286.494 480.638 286.001 481.186 285.345C481.552 284.852 481.552 284.032 481.734 283.375C481.917 279.601 481.917 275.826 482.1 272.052C482.283 267.129 479.908 263.354 475.888 260.237C474.426 259.252 473.695 257.939 473.513 256.298C473.147 254.165 472.599 252.195 471.868 250.062C471.137 248.256 467.848 247.436 466.204 248.585C464.925 249.405 463.829 250.554 462.55 251.374C461.818 251.703 460.722 251.867 459.992 251.539C458.895 251.21 458.347 250.39 459.078 249.241C460.357 247.108 461.453 244.646 463.281 243.005C466.204 240.38 468.031 237.261 468.944 233.815C470.041 229.877 471.868 226.103 474.426 222.656C476.619 219.538 478.445 215.928 481.004 213.138C485.023 208.872 489.592 205.097 494.159 201.158C495.987 199.681 498.544 195.414 498.179 193.445C497.083 194.594 495.987 195.742 494.89 196.563C492.515 198.368 489.957 200.338 487.399 201.814C484.11 203.784 480.821 205.261 477.532 207.066C473.513 209.363 471.685 213.138 470.406 216.912C469.676 218.882 469.128 221.015 468.214 222.985C468.031 223.476 467.117 223.969 466.569 224.461C466.204 223.805 465.29 223.148 465.473 222.656C466.021 219.866 466.569 216.912 467.665 214.287C468.579 211.989 469.676 209.691 471.137 207.723C472.233 206.245 473.878 205.097 475.339 203.948C479.908 200.338 485.206 197.548 490.322 194.758C494.707 192.296 498.361 189.014 500.372 184.583C500.92 183.107 502.016 181.958 502.382 180.481C503.295 177.526 502.016 174.573 500.737 171.947C498.179 166.367 495.438 160.788 492.881 155.209C492.149 153.567 491.418 151.762 490.87 149.957C490.688 148.972 490.87 147.824 491.236 146.839C492.149 145.034 493.794 143.393 493.429 141.095C493.246 140.11 494.159 138.962 494.525 137.977C495.073 136.5 494.342 135.023 493.063 134.367C492.698 134.203 491.784 134.367 491.418 134.695C488.86 136.5 486.12 137.813 483.014 138.305C482.649 138.305 482.1 138.469 481.917 138.305C481.369 138.141 480.821 137.813 480.273 137.485C480.638 136.993 481.004 136.5 481.552 136.008C481.917 135.679 482.649 135.679 483.014 135.351C486.12 133.875 487.216 131.741 486.668 128.459C486.485 127.31 485.023 126.654 483.562 126.818C482.282 126.982 481.004 127.146 479.908 126.982C477.349 126.654 476.801 124.52 475.705 122.715C474.426 120.418 473.33 117.956 471.685 115.987C466.387 108.93 458.895 103.679 452.134 97.9352C449.394 95.6379 447.019 93.0117 444.643 90.5503C439.893 85.6271 434.046 82.0168 428.382 78.0782C425.458 75.9449 421.986 74.632 418.698 72.8268C414.678 70.6935 410.841 68.3959 407.004 66.0984C405.542 65.2778 403.898 64.6215 402.07 63.965C401.34 63.8009 400.426 63.8009 399.696 63.965C397.32 64.4574 397.137 65.442 398.599 66.919C397.503 67.9036 395.675 67.7395 394.214 66.5908C391.656 64.6215 389.28 62.6522 386.175 61.6676C380.693 60.0265 375.029 58.5495 369.548 57.0726C366.989 56.4161 364.614 55.4315 362.056 54.9392C360.229 54.4468 358.219 54.2828 356.209 54.1186C354.017 53.9546 352.006 53.2981 350.728 51.493C350.18 50.6725 349.266 50.0161 348.352 49.3596C347.073 48.3749 345.611 47.8826 343.785 48.2109C338.303 49.0314 333.918 51.3288 329.898 54.611C326.061 57.893 321.493 60.3546 316.195 61.1752C313.637 61.5034 310.896 61.9958 308.337 62.324C306.511 62.4881 304.866 61.9958 303.405 60.8471C302.125 59.8624 300.481 59.2059 298.836 58.5495C297.375 58.0572 296.279 58.7136 295.365 59.5342C294.269 60.3546 292.99 61.1753 292.076 62.1599C289.884 64.2933 286.96 64.4574 284.219 64.1292C280.017 63.4728 276.728 64.9497 274.353 67.5754C272.708 69.5447 271.612 72.0063 270.333 74.1397C269.785 75.2884 269.419 76.4371 268.871 77.5858C268.14 79.0628 266.496 79.5551 264.851 80.0475C259.553 81.6885 254.254 83.0014 249.137 84.8066C246.031 85.7909 243.657 87.9248 242.012 90.5503C239.454 94.6531 237.627 99.0841 236.713 103.679C236.348 105.648 235.251 106.632 233.242 107.289C232.145 107.617 231.049 108.11 229.953 108.438C225.385 109.915 221.548 112.212 218.807 115.987C215.883 120.254 212.412 124.52 210.585 129.279C208.94 133.546 207.296 137.813 205.651 142.079C204.738 144.542 203.094 146.839 200.536 148.316C197.247 150.449 195.602 153.403 195.419 157.177C195.237 162.429 194.506 167.516 193.958 172.768C193.775 174.901 193.227 176.707 191.765 178.347C190.486 179.66 191.217 181.301 191.765 182.778C192.13 183.763 192.678 184.583 193.044 185.568C193.775 187.702 193.775 189.671 192.861 191.804C191.217 195.414 189.024 198.696 186.467 201.814C184.457 204.112 182.994 207.066 182.264 209.856C181.168 214.287 180.802 218.718 180.437 223.312C180.254 225.118 180.985 226.923 180.985 228.728C180.985 229.877 180.802 231.189 180.072 232.338C179.157 233.815 179.523 235.292 180.072 236.77C181.35 240.543 182.629 244.482 184.091 248.256C185.187 251.21 186.649 254.165 188.111 256.954C189.024 258.923 190.121 261.057 191.4 263.026C192.13 264.175 193.41 264.996 194.871 265.652C197.795 266.801 200.901 266.801 203.825 266.144C206.748 265.652 209.123 266.801 211.498 268.114C212.594 268.77 213.691 269.754 214.605 270.575C217.893 273.529 222.096 274.514 226.481 275.006C227.212 275.17 228.125 274.678 228.856 274.514C229.77 274.186 230.318 274.514 230.684 275.335C231.78 277.632 231.962 280.093 230.684 282.391C229.953 283.703 228.856 285.017 227.943 286.494C227.029 287.97 225.933 289.284 226.847 291.088C227.212 292.073 227.76 292.566 229.039 292.73C230.136 292.73 230.318 293.55 229.587 294.37C229.039 294.863 228.491 295.355 227.76 295.848C226.481 296.833 226.299 298.145 227.029 299.458C227.76 300.443 229.222 300.606 230.684 299.95C231.597 299.458 232.51 298.966 233.425 298.637C234.155 298.309 235.069 298.145 235.799 297.981C235.617 298.966 235.799 299.13 235.799 299.458ZM495.987 241.692C494.89 241.856 494.159 242.021 493.429 242.185C491.418 242.677 490.688 242.349 490.322 240.708C490.14 240.216 489.957 239.723 489.592 239.395C489.226 239.067 488.678 238.903 488.312 238.738C488.13 239.067 487.947 239.559 487.764 239.887C487.399 241.856 487.399 243.826 486.668 245.467C485.389 248.585 483.379 251.047 479.542 252.031C478.811 252.195 477.532 253.18 477.715 253.672C477.898 254.493 478.628 255.313 479.36 255.805C479.725 256.134 481.004 255.805 481.369 255.477C483.745 253.672 486.12 251.703 488.495 249.898C489.774 248.913 491.418 248.092 492.881 247.272C493.246 247.108 493.794 246.944 493.977 246.616C494.525 245.303 495.255 243.662 495.987 241.692ZM496.169 234.472C496.169 232.995 496.169 231.682 496.169 230.533C496.169 229.221 495.073 228.236 493.794 228.072C492.333 227.907 490.688 227.907 489.226 228.072C488.861 228.072 488.13 228.892 488.312 229.056C488.678 230.041 489.226 231.189 489.957 231.682C491.784 232.831 493.794 233.487 496.169 234.472ZM502.016 198.369C505.487 195.25 505.487 192.625 502.016 189.835C502.016 192.789 502.016 195.414 502.016 198.369ZM509.325 205.425C508.96 205.425 508.776 205.589 508.411 205.589C508.046 207.23 508.046 208.871 508.776 210.348C508.96 210.84 509.873 211.169 510.604 211.333C510.786 211.333 511.7 210.676 511.517 210.676C510.786 209.035 510.056 207.23 509.325 205.425Z" fill="black"/>
<path d="M398.051 225.118C399.513 224.789 400.974 224.461 402.437 224.133C405.725 223.312 409.197 222.492 412.486 221.343C415.043 220.523 415.775 219.046 415.591 216.912C415.409 215.107 413.765 213.63 411.389 213.138C405.725 211.989 400.244 211.333 394.579 212.974C392.753 213.466 391.29 214.615 389.829 215.6C387.088 217.405 384.53 219.538 381.606 221.179C379.231 222.656 376.491 222.492 373.75 222.164C371.557 222 370.644 222.328 369.913 224.133C369.365 225.938 369.182 228.072 368.633 229.876C368.268 231.189 367.72 232.338 367.172 233.487C366.989 233.815 366.076 234.143 365.345 234.143C364.979 234.143 364.431 233.487 364.431 232.995C363.883 229.876 363.335 226.758 362.787 223.64C362.056 220.523 362.97 217.733 364.614 215.107C366.076 212.645 366.076 212.481 363.701 210.676C363.153 210.184 362.238 209.199 362.421 209.035C363.153 208.051 364.249 207.887 365.527 208.215C366.989 208.707 368.451 209.199 369.913 209.527C372.837 210.184 375.394 209.035 377.404 207.23C378.683 206.081 379.78 204.605 381.241 203.456C382.337 202.471 383.799 201.323 385.261 200.994C391.29 200.009 396.224 197.548 400.974 194.266C405.725 191.147 410.841 188.686 416.505 187.373C418.698 186.881 420.89 186.06 423.083 185.568C423.631 185.404 424.362 185.568 424.91 185.732C424.545 186.224 424.362 186.881 423.997 187.209C420.89 189.507 417.784 191.64 414.678 194.102C413.765 194.758 413.034 195.742 412.302 196.563C411.572 197.384 411.937 198.204 412.851 198.532C416.14 199.353 417.967 201.814 420.342 203.784C421.804 205.096 423.449 206.409 425.275 207.23C426.189 207.722 428.016 207.558 428.93 207.066C434.411 204.276 436.969 200.83 436.239 195.086C435.691 191.147 434.594 187.209 434.046 183.107C433.315 177.855 433.133 172.44 433.863 167.188C434.046 166.204 434.594 165.055 435.142 164.234C436.056 162.921 437.7 162.758 438.431 164.234C439.162 165.383 439.345 166.695 439.528 168.009C439.893 169.814 439.893 171.619 440.258 173.424C441.172 178.511 442.268 183.435 442.817 188.522C443.182 190.656 442.999 192.789 442.634 194.922C441.902 198.368 440.806 201.814 439.71 205.096C438.796 207.887 436.056 209.527 433.498 211.005C430.574 212.645 427.468 214.287 423.631 213.958C423.266 213.958 422.718 214.451 422.352 214.779C421.438 215.436 420.708 216.091 419.977 216.748C419.612 217.076 419.063 217.569 418.88 217.897C417.236 221.672 414.13 224.133 409.928 225.446C409.38 225.61 408.831 225.774 408.466 225.61C405.177 225.446 401.705 225.118 398.416 224.954C398.233 225.282 398.233 225.118 398.051 225.118ZM397.503 208.215C397.503 208.379 397.685 208.543 397.685 208.543C399.148 208.543 400.792 208.707 402.253 208.543C406.821 208.215 411.389 208.215 415.957 209.527C416.505 209.691 417.053 209.527 417.601 209.527C417.601 208.871 417.784 208.215 417.419 207.887C415.409 205.425 412.669 203.784 409.38 203.127C408.1 202.963 406.639 203.291 405.542 203.948C403.35 204.932 401.34 206.081 399.33 207.23C398.599 207.394 398.051 207.887 397.503 208.215Z" fill="black"/>
<path d="M299.568 324.074C300.298 325.879 301.029 327.52 301.577 329.325C301.942 330.638 302.856 330.802 304.135 330.638C307.607 329.982 310.896 326.371 311.444 322.761C311.809 320.464 312.174 318.166 312.54 316.033C312.722 315.54 313.271 315.048 313.637 314.392C314.185 314.884 314.733 315.212 315.098 315.868C315.463 316.689 315.463 317.838 315.829 318.658C316.011 319.151 316.377 319.643 316.56 320.135C317.108 319.643 317.839 319.315 318.021 318.822C318.569 316.853 318.935 314.884 319.3 312.915C319.484 312.094 319.483 311.109 320.032 310.453C320.58 309.468 321.493 309.468 322.224 310.453C322.955 311.437 323.686 312.422 324.417 313.407C325.33 314.719 326.427 315.048 327.705 313.9C328.619 312.915 329.167 311.766 329.898 310.617C330.446 309.797 330.446 308.648 330.994 307.991C331.908 306.843 333.187 306.843 334.101 307.991C335.379 309.633 338.485 309.797 339.948 308.155C340.313 307.827 340.678 307.335 341.044 307.007C341.957 306.186 342.871 305.694 344.15 306.515C345.611 307.335 346.708 307.007 347.804 305.858C348.9 304.545 349.997 303.233 351.276 302.084C351.641 301.591 352.189 301.099 352.738 300.77C353.651 300.115 354.382 300.115 354.747 301.263C355.478 303.397 355.843 303.561 358.219 302.74C358.584 302.576 359.132 302.412 359.315 302.576C360.594 303.725 362.056 303.233 363.701 303.233C364.614 303.233 365.71 304.053 366.624 304.381C367.537 304.709 368.268 305.53 368.999 305.366C369.548 305.366 370.278 304.381 370.461 303.561C370.826 302.74 370.826 301.591 371.192 300.77C371.374 300.278 372.105 299.786 372.47 299.294C372.837 299.786 373.202 300.279 373.385 300.935C373.75 302.412 374.115 303.889 374.663 305.366C375.029 306.679 376.125 307.171 377.587 306.679C379.048 306.186 380.328 306.351 381.789 307.007C384.895 308.648 385.809 308.484 388.367 306.515C389.464 305.694 390.012 304.545 389.829 303.233C389.464 301.755 389.281 300.279 388.915 298.801C388.732 297.652 389.098 296.996 390.377 296.668C391.838 296.34 392.204 297.324 392.204 298.145C392.569 299.786 392.935 301.427 392.753 303.068C392.204 306.35 394.762 308.319 397.137 309.797C399.147 311.109 400.974 312.258 402.984 313.735C405.359 315.54 408.283 316.525 411.206 317.838C415.409 319.643 419.977 320.956 423.449 323.746C423.814 324.074 424.179 324.731 424.545 325.059C423.997 325.223 423.449 325.551 422.901 325.386C421.438 325.222 419.794 325.058 418.698 324.402C415.957 322.925 413.034 322.433 409.928 323.253C407.004 323.91 404.446 323.253 402.802 320.956C402.619 320.792 402.436 320.628 402.253 320.299C401.705 319.643 401.157 319.643 400.426 320.135C398.416 321.284 396.407 322.597 394.214 323.417C392.021 324.402 390.012 324.566 387.819 322.925C386.723 322.104 385.261 321.776 383.799 321.284C383.251 321.12 382.337 320.956 381.972 320.628C380.51 318.986 378.317 318.986 376.308 318.33C372.47 317.182 368.633 316.197 365.527 313.735C363.335 311.93 360.594 310.945 357.305 312.094C356.392 312.422 355.295 312.422 354.382 312.258C352.738 311.766 351.824 312.258 350.545 313.079C347.073 315.212 343.419 316.689 339.033 316.361C337.755 316.361 336.476 315.868 335.379 315.376C334.283 315.048 333.918 315.048 333.553 316.033C332.456 319.151 330.264 320.792 326.609 320.956C325.878 320.956 324.965 321.612 324.599 322.268C322.955 325.715 320.58 328.177 316.56 329.489C316.195 329.653 315.646 329.982 315.463 330.31C313.637 333.92 308.52 336.217 304.135 335.398C303.222 335.233 302.125 335.069 301.029 334.905C300.664 334.905 300.116 335.069 299.75 335.233C297.375 337.695 294.451 336.874 291.893 335.561C290.98 335.069 290.249 334.413 289.335 334.084C288.421 333.756 287.508 333.592 286.595 333.264C286.046 333.1 285.315 332.771 284.95 332.443C284.585 332.279 284.585 331.787 284.219 331.623C282.392 329.161 282.392 329.161 279.103 329.982C277.459 330.31 275.814 329.653 275.266 328.177C274.535 326.535 274.901 324.238 276.179 323.582C276.911 323.089 277.641 323.253 277.641 324.238C277.641 324.731 277.459 325.222 277.641 325.551C277.641 326.043 277.824 326.864 278.189 327.028C278.737 327.192 279.652 327.192 280.2 326.864C281.296 326.371 282.209 325.551 282.941 324.894C283.854 324.074 284.585 324.238 285.498 324.894C285.863 325.222 286.229 325.715 286.595 326.043C287.873 328.177 289.701 329.489 291.893 330.802C292.99 331.459 294.451 331.787 295.547 330.966C297.375 329.817 299.201 328.504 299.384 326.207C299.568 325.551 299.75 324.895 299.933 324.074C299.201 323.91 299.384 324.074 299.568 324.074ZM394.762 314.392C394.579 313.9 394.579 313.735 394.579 313.571C394.031 312.422 391.29 310.617 389.829 310.617C389.464 310.617 388.915 310.782 388.915 310.945C388.732 311.273 388.732 311.93 388.915 312.094C390.377 313.079 392.021 314.064 393.666 314.884C393.849 314.884 394.397 314.556 394.762 314.392Z" fill="black"/>
<path d="M337.024 206.902C337.207 208.707 335.927 209.856 334.283 211.005C331.725 212.645 331.725 213.63 334.831 214.943C335.745 215.272 336.659 215.763 337.389 216.256C338.851 217.405 338.668 218.718 336.841 219.374C335.562 219.866 334.101 220.03 332.822 220.523C331.725 221.015 330.446 221.507 329.533 222.492C327.705 224.297 325.695 224.461 323.869 222.82C322.955 222 322.224 221.179 321.493 220.358C320.214 219.046 319.483 219.046 318.204 220.358C317.473 221.015 316.743 221.672 315.829 222.328C315.463 222.492 314.915 222.492 314.55 222.328C314.367 222.164 314.367 221.507 314.55 221.179C316.743 217.733 314.185 216.256 310.713 216.091C304.683 215.763 298.653 216.912 292.807 218.389C290.797 218.882 290.432 220.194 291.893 221.507C292.807 222.328 293.903 222.656 294.999 223.148C295.365 223.312 295.913 223.476 296.461 223.64C296.461 223.805 296.279 223.969 296.279 224.133C295.182 223.969 294.086 223.969 292.99 223.64C291.71 223.312 290.432 222.492 289.152 222C288.421 221.836 287.691 221.836 286.96 221.672C286.96 222.328 287.143 222.984 287.143 223.805C287.143 223.969 287.325 224.297 287.691 224.954C286.777 224.625 286.046 224.461 285.681 224.133C283.671 222.656 281.661 222.328 279.286 223.64C278.92 223.969 278.189 223.805 277.641 223.969C277.641 223.805 277.459 223.805 277.459 223.64C277.824 223.148 278.189 222.492 278.737 222.164C282.941 219.866 286.96 217.405 291.345 215.272C292.806 214.451 294.817 214.287 296.644 214.123C302.125 213.63 307.789 213.466 313.271 213.138C314.55 213.138 316.195 213.466 316.56 211.989C316.925 210.512 315.098 210.184 314.002 209.691C309.251 207.558 304.135 206.738 299.019 206.081C297.192 205.753 295.182 205.753 293.173 205.589C288.239 205.26 285.133 207.722 282.941 211.333C280.748 215.272 277.276 217.897 273.074 220.03C271.977 220.687 270.333 220.687 268.871 220.851C268.323 220.851 267.592 220.358 267.409 219.866C267.227 219.538 267.957 219.046 268.14 218.554C268.14 218.554 268.14 218.554 268.323 218.389C272.16 217.24 273.622 214.451 275.266 211.333C276.728 208.871 278.92 206.574 281.113 204.44C282.941 202.635 282.941 201.814 280.93 200.338C280.017 199.681 279.103 199.189 278.007 198.696C274.718 197.22 274.17 197.22 271.429 199.517C269.785 200.83 268.323 202.471 266.861 204.112C266.496 204.44 266.13 204.933 265.765 205.261C264.121 206.738 262.293 206.409 261.562 204.44C260.832 202.471 260.466 200.338 260.284 198.368C260.101 196.399 260.284 194.266 260.284 192.296C260.466 188.358 259.552 184.419 258.091 180.809C257.543 179.66 256.629 178.347 258.273 177.362C260.101 176.378 261.197 177.855 261.745 178.84C263.39 181.465 264.486 184.255 266.13 186.717C267.409 188.85 269.054 190.984 270.698 193.117C271.064 193.609 271.794 194.102 272.342 194.102C275.449 194.593 278.555 195.086 281.478 195.578C282.941 195.742 284.219 195.907 285.681 196.071C287.873 196.399 289.701 197.056 291.345 198.368C293.903 200.502 297.009 200.994 300.298 201.158C303.587 201.322 307.059 201.487 310.165 202.635C311.444 203.127 312.722 203.948 314.002 204.605C315.098 205.097 316.195 205.917 317.291 205.917C320.032 206.245 322.589 207.066 324.782 208.707C325.33 209.199 326.427 209.527 327.157 209.363C330.446 208.707 333.553 207.887 337.024 206.902Z" fill="black"/>
<path d="M305.779 112.377C307.789 113.033 309.8 114.181 311.078 115.823C312.906 117.792 314.915 118.448 317.656 117.956C318.021 117.956 318.204 117.792 318.569 117.792C319.484 117.956 320.214 117.956 321.128 118.12C320.762 118.777 320.58 119.761 319.849 120.253C318.569 121.074 316.925 121.566 315.463 122.387C312.906 123.7 309.982 124.52 307.789 126.326C302.308 131.248 295.547 132.233 288.239 132.397C284.95 132.397 281.478 132.233 278.189 132.233C275.814 132.233 273.622 132.89 271.612 134.203C269.419 135.679 267.044 137.157 264.851 138.633C263.207 139.782 261.38 140.439 259.369 139.782C257.908 139.29 256.264 139.29 254.802 138.633C253.889 138.305 252.975 137.321 252.975 136.5C252.792 135.187 254.254 135.023 255.533 135.023C258.639 135.187 260.466 133.875 261.745 131.412C262.841 129.444 264.486 127.638 265.947 125.833C268.323 123.044 271.794 121.73 275.449 121.402C278.372 121.238 281.296 121.566 284.219 121.73C285.133 121.73 286.046 121.895 286.96 122.059C288.604 122.223 289.335 121.566 288.604 120.253C288.056 119.269 287.325 118.284 286.229 117.792C283.671 116.151 280.748 115.659 277.641 115.823C275.997 115.987 274.17 115.987 272.525 116.151C271.977 116.151 271.246 115.987 270.698 115.987C270.698 115.823 270.516 115.659 270.516 115.495C271.246 115.33 271.977 115.002 272.708 114.838C280.017 113.525 286.777 114.674 292.99 118.12C294.086 118.777 295.365 119.105 296.644 119.433C297.192 119.597 297.923 119.105 298.653 118.941C298.471 118.448 298.288 117.628 297.74 117.299C296.095 116.315 294.269 115.166 292.441 114.51C286.777 112.048 281.296 109.587 275.083 108.93C272.525 108.602 269.785 108.602 267.044 108.438C266.313 108.438 265.582 108.438 265.034 108.274C264.486 108.11 263.938 107.781 263.755 107.289C263.573 106.961 264.121 106.304 264.486 106.141C265.582 105.648 266.679 104.992 267.775 104.992C272.16 104.828 276.728 104.828 281.296 104.992C285.863 105.156 289.884 106.961 293.721 109.095C297.009 110.899 300.116 112.869 303.405 114.838C303.587 115.002 303.953 115.166 304.135 115.166C304.683 115.33 305.231 115.33 305.779 115.33C305.779 114.838 305.779 114.346 305.597 113.853C305.414 113.361 305.231 113.033 305.049 112.541C305.414 112.541 305.597 112.377 305.779 112.377Z" fill="black"/>
<path d="M361.873 291.581C361.69 291.581 361.69 291.581 361.508 291.581C358.401 290.76 355.843 291.581 352.921 292.73C350.728 293.55 348.535 292.401 348.535 290.268C348.535 284.196 344.333 282.719 339.034 282.063C335.927 281.735 332.822 281.242 330.081 279.765C329.716 279.601 329.35 279.437 328.984 279.272C327.888 278.452 326.975 277.468 327.523 276.154C328.071 274.842 329.35 274.678 330.812 274.678C331.908 274.678 333.005 274.842 334.101 274.842C335.927 274.678 336.476 273.693 336.111 272.052C335.745 270.575 335.197 269.262 334.831 267.786C334.283 266.144 335.379 264.996 336.659 264.011C337.572 263.354 338.303 263.683 338.303 264.668C338.485 266.472 338.668 268.442 339.216 270.247C339.582 272.217 341.226 273.529 343.237 274.021C347.621 275.006 352.189 275.499 356.575 273.857C358.036 273.365 359.316 271.888 360.412 270.575C361.873 268.606 362.97 266.472 364.431 264.503C364.979 263.847 366.076 263.026 366.624 263.026C367.355 263.19 368.085 264.175 368.451 264.996C368.999 265.98 369.182 267.129 369.548 268.278C370.278 270.247 371.557 271.068 373.933 271.068C374.846 271.068 375.759 270.739 376.856 270.739C378.5 270.575 380.51 269.919 381.789 271.56C383.069 273.201 382.886 276.319 381.606 277.632C379.78 279.437 377.952 280.914 375.211 281.57C372.288 282.227 370.461 283.703 369.548 286.329C368.268 290.103 366.076 291.417 361.873 291.581Z" fill="black"/>
<path d="M218.259 234.8C218.807 235.128 219.355 235.292 219.721 235.785C221.182 237.261 222.644 238.574 223.741 240.216C225.933 243.498 229.221 245.303 233.059 246.616C237.079 247.928 240.916 249.57 245.301 249.734C246.58 249.734 247.676 250.39 248.041 251.703C248.224 253.18 247.128 253.672 246.031 254.165C243.839 255.313 241.646 255.477 239.088 254.656C236.165 253.672 235.069 254.165 233.79 256.79C232.51 259.252 230.684 261.221 227.76 262.37C224.654 263.683 222.826 262.37 223.01 259.252C223.193 257.775 223.375 256.134 223.01 254.656C222.826 253.672 221.913 252.688 221.182 252.195C220.086 251.374 219.172 252.031 218.989 253.18C218.807 254.165 218.441 255.149 218.076 255.97C217.893 256.462 217.163 256.954 216.615 256.79C216.249 256.79 215.701 256.134 215.335 255.805C214.787 254.985 214.422 254.001 213.874 253.18C212.96 252.031 213.143 250.882 214.239 249.898C214.97 249.077 216.249 248.256 215.518 246.944C214.787 245.631 213.509 245.138 211.864 245.138C210.768 245.138 209.671 245.138 208.392 245.138C206.748 245.303 206.199 246.287 206.565 247.764C206.565 248.092 206.748 248.256 206.748 248.421C206.748 248.913 206.748 249.734 206.383 249.898C205.834 250.062 204.921 250.062 204.555 249.734C203.094 248.421 201.814 246.944 200.353 245.631C199.805 244.974 199.073 244.318 198.343 243.99C197.064 243.334 196.699 242.513 197.429 241.692C198.343 240.707 199.439 239.887 200.718 239.395C201.814 238.903 202.18 239.887 202.362 240.544C202.545 241.364 202.728 242.185 203.094 243.005C204.007 242.841 204.738 242.513 205.651 242.349C206.565 242.185 207.296 242.185 208.209 242.021C209.854 241.692 210.037 241.2 209.305 239.887C208.392 238.246 207.113 236.605 206.565 234.8C205.834 232.995 205.651 231.189 205.469 229.385C205.469 228.892 206.199 228.4 206.565 227.907C206.748 228.4 207.113 228.892 207.296 229.385C207.844 230.697 208.209 232.174 209.123 233.323C211.681 236.933 214.239 240.543 218.624 242.513C219.721 243.005 221 243.005 222.278 243.17C222.096 242.185 222.096 240.872 221.73 240.052C221 238.574 219.904 237.261 218.807 235.949C218.624 235.621 218.259 235.292 218.076 234.8C217.893 235.128 218.076 234.964 218.259 234.8Z" fill="black"/>
<path d="M220.817 181.137C220.817 180.153 220.817 179.66 220.817 179.168C221.365 175.393 222.461 171.783 224.471 168.665C226.847 165.055 230.318 162.265 235.434 162.265C238.175 162.265 240.916 162.265 243.474 162.921C249.503 164.234 254.071 162.265 258.091 158.655C258.821 157.998 259.918 157.342 260.649 156.685C260.832 156.849 261.014 156.849 261.014 157.013C260.649 157.998 260.284 158.819 260.101 159.803C259.552 161.444 259.187 163.249 258.821 164.891C257.36 170.47 252.426 175.065 245.118 175.229C240.733 175.393 236.531 175.229 232.145 175.393C228.856 175.558 225.933 177.035 223.193 178.675C222.461 179.168 221.913 180.153 220.817 181.137Z" fill="black"/>
<path d="M405.359 131.412C401.522 131.412 397.868 131.412 394.031 131.412C393.118 131.412 392.204 130.757 391.473 130.593C392.386 130.264 393.301 129.936 394.214 129.772C395.127 129.608 396.224 129.936 397.137 129.936C403.533 129.772 408.831 127.31 412.851 123.208C416.505 119.597 419.794 115.166 419.612 109.914C419.612 108.11 419.063 106.304 418.698 104.499C417.784 100.889 417.053 97.1144 414.495 93.8324C413.399 92.5192 412.12 91.371 411.024 90.0579C410.476 89.4013 410.476 88.5814 410.11 87.9248C411.024 87.7606 411.937 87.4324 412.851 87.7606C415.774 88.5806 417.601 90.8786 419.429 92.8475C422.535 96.1296 423.631 100.068 425.093 103.843C425.641 105.156 426.189 105.977 427.833 105.977C428.564 105.977 429.661 106.468 430.209 106.961C431.305 107.781 430.94 108.766 429.661 109.423C428.747 109.914 428.199 110.735 427.468 111.392C426.92 112.048 426.372 112.869 425.641 113.361C424.179 114.181 423.449 115.33 422.901 116.808C422.352 119.105 421.438 121.402 420.708 123.536C419.064 127.966 413.399 131.248 408.465 131.084C407.369 131.084 406.456 131.084 405.359 131.084C405.359 131.084 405.359 131.248 405.359 131.412Z" fill="black"/>
<path d="M453.962 259.744C453.231 262.205 452.318 264.668 451.404 266.965C451.038 267.95 450.308 268.935 449.76 270.083C449.029 271.396 449.577 272.216 450.856 272.872C451.769 273.365 452.683 273.857 453.414 274.35C454.51 275.006 454.51 275.827 453.231 276.319C452.501 276.647 451.586 276.811 450.673 277.139C446.471 278.124 442.999 279.929 439.71 282.555C438.796 283.375 437.152 284.032 435.873 284.196C433.133 284.524 431.488 282.063 432.95 279.929C434.046 278.452 435.142 276.975 436.421 275.827C437.883 274.678 438.614 273.365 439.162 271.724C439.71 269.262 440.989 267.129 442.451 264.832C443.547 263.19 444.095 261.057 444.643 259.088C445.191 257.447 445.923 255.805 447.932 255.149C450.49 254.493 452.683 255.805 453.049 258.268C453.049 258.595 453.049 259.088 453.049 259.416C453.597 259.744 453.779 259.744 453.962 259.744Z" fill="black"/>
<path d="M242.012 194.102C241.464 194.922 241.281 195.414 240.733 195.907C234.886 201.323 231.049 207.723 229.404 215.272C229.039 217.405 228.673 219.538 228.308 221.672C228.125 222.492 227.76 223.476 227.212 224.133C226.847 224.625 225.933 225.282 225.567 225.118C225.019 224.954 224.289 224.297 224.106 223.64C223.741 222.656 223.558 221.672 223.375 220.687C223.01 218.554 222.826 216.256 222.096 214.123C220.817 210.02 222.826 207.066 226.115 204.605C229.039 202.471 232.145 200.338 235.251 198.204C235.799 197.876 235.982 197.056 236.348 196.399C235.434 196.235 234.521 195.907 233.79 196.071C229.587 198.204 225.385 200.174 221.365 202.635C217.711 204.769 214.422 207.23 210.95 209.527C210.585 209.691 210.037 209.691 209.672 209.856C209.672 209.363 209.488 208.707 209.672 208.543C211.864 206.245 213.874 203.948 216.249 201.978C218.624 200.009 221.365 198.204 224.289 196.563C228.856 193.938 233.79 192.789 239.271 194.266C239.82 194.266 240.733 194.102 242.012 194.102Z" fill="black"/>
<path d="M357.671 454.539C355.295 452.077 353.834 449.287 354.565 445.841C355.113 442.887 356.209 440.261 358.767 438.128C359.681 437.308 359.498 435.83 359.864 434.517C360.229 432.548 360.412 430.579 360.96 428.61C361.325 427.461 362.421 426.312 363.518 425.492C364.797 424.671 364.431 424.179 363.883 423.194C362.97 421.881 362.238 420.241 361.69 418.763C361.508 418.435 362.056 417.779 362.238 417.286C362.787 417.614 363.518 417.779 363.883 418.107C365.162 420.404 366.989 421.881 369.182 423.359C371.374 424.999 372.288 427.625 368.999 429.266C367.172 430.251 366.624 431.728 367.537 433.533C368.999 436.651 368.816 437.143 366.441 439.605C365.71 440.426 365.345 441.574 365.162 442.559C364.979 444.857 364.431 445.184 362.421 444.036C361.508 443.543 360.777 443.708 360.412 444.528C359.316 446.497 358.401 448.63 358.767 450.928C358.949 451.912 358.767 453.061 358.767 454.21C358.219 454.539 358.036 454.539 357.671 454.539Z" fill="black"/>
<path d="M364.797 115.002C364.431 114.346 364.066 113.853 364.066 113.197C364.066 108.274 363.883 103.186 364.066 98.2634C364.249 95.9654 365.71 93.8324 367.72 92.3551C369.548 91.0427 371.374 89.8937 373.202 88.9089C373.933 88.5813 374.846 88.7455 375.759 88.7455C375.577 89.5654 375.759 90.3861 375.394 91.0427C374.846 92.0276 374.115 92.8475 373.019 94.1606C374.115 93.9965 374.846 93.9965 375.394 93.9965C381.241 92.6834 387.271 92.0276 393.301 93.3399C394.214 93.5041 394.945 93.9965 395.859 94.4889C396.041 94.6531 396.224 94.9814 396.224 95.3096C396.224 95.4738 395.675 95.6372 395.493 95.6372C389.464 94.9814 383.617 96.622 377.769 97.771C373.75 98.5917 370.644 100.889 368.816 104.335C367.903 106.305 366.807 108.274 366.076 110.407C365.527 111.884 365.527 113.525 365.345 115.166C365.162 114.838 364.979 114.838 364.797 115.002Z" fill="black"/>
<path d="M432.218 140.439C430.574 140.439 429.113 140.767 427.651 140.603C425.824 140.439 425.275 139.782 425.641 138.141C425.641 137.485 426.007 136.828 426.189 136.172C426.372 135.679 426.372 135.023 426.555 134.53C426.372 134.53 426.189 134.367 426.189 134.367C425.458 135.515 424.727 136.664 423.814 137.813C423.449 138.305 422.901 138.633 422.535 138.961C422.169 138.469 421.621 137.813 421.621 137.321C421.621 134.203 423.266 131.741 425.275 129.444C426.92 127.31 428.929 125.505 430.94 123.536C431.122 123.208 431.488 123.208 432.401 122.715C432.401 124.192 432.585 125.177 432.401 126.326C432.036 128.787 431.488 131.248 431.122 133.71C431.122 134.367 431.305 135.023 431.488 135.679C432.218 135.515 432.767 135.351 433.498 135.023C434.046 134.859 434.411 134.531 434.959 134.367C438.613 132.89 441.537 130.921 443.73 127.802C444.095 127.31 444.643 127.146 445.191 126.818C445.557 127.31 446.105 127.966 446.105 128.459C446.105 132.069 444.278 135.187 441.354 137.649C440.624 138.305 439.528 138.797 438.796 139.454C437.335 141.095 436.056 142.736 434.594 144.377C434.229 144.706 433.863 145.034 433.498 145.362C433.133 145.034 432.401 144.542 432.401 144.213C432.036 142.736 432.218 141.588 432.218 140.439Z" fill="black"/>
<path d="M381.058 448.466C380.876 447.81 380.693 446.99 380.693 446.497C381.606 443.215 382.521 440.097 383.617 436.979C383.982 435.502 384.713 434.19 385.261 432.712C385.809 430.908 385.626 429.102 384.53 427.625C383.251 425.82 381.972 424.178 380.51 422.374C380.145 422.045 379.78 421.553 379.78 421.225C379.597 420.732 379.597 420.076 379.78 419.748C379.962 419.584 380.876 419.42 381.241 419.748C383.069 420.568 384.713 421.717 386.357 422.702C386.357 422.702 386.54 422.702 386.54 422.538C387.453 420.24 388.732 419.912 390.56 421.717C392.386 423.523 393.666 425.492 395.31 427.461C395.859 428.117 396.407 428.61 396.955 429.266C398.964 431.235 398.416 433.041 395.859 434.19C395.493 434.354 395.31 434.845 394.945 435.338C394.579 436.159 394.214 436.979 393.483 438.292C392.204 436.651 391.29 435.502 390.194 434.354C385.626 437.8 383.069 441.574 382.337 446.333C382.154 447.154 381.972 447.975 381.606 448.631C381.606 448.467 381.424 448.466 381.058 448.466Z" fill="black"/>
<path d="M294.634 418.763C295.365 419.584 296.096 420.404 296.827 421.389C297.009 421.717 297.009 422.21 297.192 422.702C296.644 422.702 295.913 422.866 295.547 422.702C288.421 419.584 283.489 414.661 279.468 408.753C278.189 406.947 277.641 404.814 278.555 402.516C278.737 402.025 279.286 401.861 279.652 401.368C280.017 401.696 280.382 401.861 280.565 402.189C281.113 403.337 281.844 404.322 282.209 405.471C284.402 410.394 290.432 412.692 294.451 412.528C296.095 412.528 296.461 411.871 295.913 410.394C295.73 409.902 295.365 409.245 295.547 408.753C295.547 408.261 295.913 407.768 296.279 407.604C296.644 407.44 297.192 407.768 297.557 407.932C299.568 408.753 301.577 409.574 303.587 410.394C304.135 410.558 304.866 411.05 304.866 411.379C304.866 411.871 304.135 412.692 303.77 412.692C301.029 412.856 299.75 414.168 299.568 416.466C299.568 416.958 298.105 417.45 297.192 417.779C296.461 417.943 295.73 417.943 294.817 417.943C294.817 418.435 294.817 418.599 294.634 418.763Z" fill="black"/>
<path d="M287.325 300.443C287.873 300.279 288.421 300.115 288.969 299.786C296.279 293.878 302.49 286.986 307.059 279.109C309.8 274.186 313.089 269.426 316.377 264.832C318.021 262.698 320.397 261.057 322.589 259.252C323.138 258.759 324.051 258.595 324.965 258.431C326.975 258.267 328.253 259.744 327.157 261.221C326.427 262.205 325.33 263.026 324.234 263.847C323.321 264.668 322.041 265.323 321.31 266.308C316.743 272.216 312.174 277.96 307.789 284.032C302.857 290.76 296.827 296.34 289.335 300.77C288.97 300.935 288.604 301.099 288.421 301.099C287.873 300.935 287.691 300.77 287.325 300.443Z" fill="black"/>
<path d="M335.379 465.042C335.379 466.355 334.649 467.01 333.005 466.518C329.898 465.698 327.705 463.564 325.33 461.759C322.589 459.79 321.31 457 320.032 454.21C319.849 453.882 319.666 453.39 319.484 453.061C319.118 452.569 318.57 452.077 318.021 451.749C317.656 452.241 317.108 452.569 316.743 453.061C316.195 453.882 315.829 455.195 314.367 454.703C312.906 454.375 312.723 453.226 313.089 452.077C313.819 449.123 314.55 446.333 315.281 443.379C315.463 442.887 316.377 442.559 316.925 442.23C317.291 442.723 318.021 443.215 318.021 443.708C318.57 449.451 322.041 453.226 327.888 455.524C331.36 456.836 335.379 461.759 335.379 465.042Z" fill="black"/>
<path d="M379.78 427.461C379.962 431.071 378.683 434.517 376.673 437.799C374.481 441.41 373.019 445.348 371.374 449.287C370.826 450.6 370.278 451.913 369.548 453.061C369.182 453.718 368.085 454.375 367.537 454.21C366.989 454.046 366.076 453.061 366.076 452.405C366.259 450.436 366.259 448.303 367.172 446.497C368.268 443.872 370.096 441.575 371.74 439.112C373.202 436.651 375.211 434.517 376.308 432.056C377.769 429.102 378.135 425.984 375.211 423.359C373.75 422.045 372.47 420.732 371.009 419.256C370.644 418.928 370.644 418.435 370.644 418.107C371.192 417.943 371.74 417.614 372.105 417.778C374.481 419.256 376.856 420.568 379.232 422.21C380.328 422.866 380.51 424.014 380.328 425.328C379.78 425.984 379.962 426.641 379.78 427.461Z" fill="black"/>
<path d="M410.658 335.726C411.754 336.053 413.034 336.546 414.13 336.874C416.323 337.531 418.515 338.023 420.89 338.515C425.458 339.5 429.478 341.141 432.401 344.423C434.229 346.393 436.056 348.198 438.796 349.018C438.979 349.018 439.162 349.182 439.162 349.182C439.893 349.674 440.441 350.331 441.172 350.823C440.258 351.48 439.528 352.464 438.431 352.629C436.239 353.121 434.229 351.972 432.401 350.823C428.93 348.69 425.641 346.392 422.169 344.259C419.612 342.782 417.053 341.469 414.495 340.156C413.217 339.5 412.12 338.515 411.024 337.695C410.476 337.202 410.293 336.546 410.11 335.889C410.293 336.053 410.476 335.89 410.658 335.726Z" fill="black"/>
<path d="M442.817 158.162C444.278 158.983 445.74 159.803 447.019 160.624C450.856 162.758 455.241 163.249 459.444 164.07C465.473 165.055 470.041 168.009 473.33 172.604C473.878 173.424 474.243 174.737 474.243 175.722C474.243 176.871 473.33 177.198 472.417 176.542C471.685 176.214 471.137 175.558 470.406 175.065C466.387 171.619 462.001 168.993 456.337 168.337C452.501 167.844 449.577 165.547 446.653 163.413C445.191 162.265 443.913 161.116 442.817 159.803C442.451 159.475 442.268 158.819 442.085 158.326C442.451 158.326 442.634 158.326 442.817 158.162Z" fill="black"/>
<path d="M333.735 426.148C338.668 426.805 342.14 432.056 340.13 435.994C338.851 438.784 337.937 441.574 336.841 444.364C335.562 447.318 333.187 449.779 329.35 450.6C327.523 450.928 325.695 450.436 325.147 449.287C324.417 447.81 324.965 446.497 326.427 445.677C327.705 444.857 328.984 444.036 330.446 443.379C331.908 442.723 332.822 441.902 332.456 440.426C332.09 438.948 332.822 437.8 333.735 436.815C336.293 434.026 336.111 431.071 334.649 428.117C334.283 427.461 334.101 426.805 333.735 426.148Z" fill="black"/>
<path d="M442.634 167.188C445.191 170.306 449.577 170.306 452.866 171.947C459.444 175.229 464.559 179.66 466.569 186.224C466.935 187.537 466.935 189.178 466.752 190.656C466.569 191.968 465.656 192.296 464.559 191.311C463.646 190.491 462.733 189.507 462.184 188.358C460.174 184.255 457.433 180.644 453.779 177.691C451.952 176.05 449.76 174.901 447.749 173.588C445.923 172.275 444.278 170.798 442.634 169.322C441.902 168.829 441.537 168.009 442.634 167.188Z" fill="black"/>
<path d="M362.421 465.534C360.777 465.37 359.132 465.37 357.488 465.206C355.843 465.041 354.93 465.37 354.747 466.846C354.565 467.503 354.199 468.324 353.651 468.816C352.554 469.801 351.276 469.637 350.728 468.324C350.362 467.339 350.18 466.19 350.362 465.206C350.91 461.595 350.18 458.313 348.169 455.195C347.439 454.046 347.256 452.569 346.891 451.092C346.891 450.764 347.256 450.436 347.439 449.944C347.804 450.272 348.169 450.436 348.352 450.764C349.997 452.733 351.458 454.867 353.103 456.836C353.651 457.657 354.382 457.821 355.478 457.164C356.757 456.179 358.036 456.672 358.584 457.821C359.864 460.61 362.421 461.431 365.345 461.924C366.441 462.088 367.903 462.252 367.537 463.4C367.355 464.221 365.893 464.877 364.979 465.206C364.431 465.698 363.335 465.37 362.421 465.534Z" fill="black"/>
<path d="M447.019 149.3C447.749 149.793 448.115 149.793 448.298 150.121C453.049 155.044 459.261 157.177 466.021 157.834C469.676 158.162 472.965 158.983 476.071 160.624C479.908 162.758 482.649 165.711 485.023 169.158C485.206 169.486 485.389 169.65 485.389 169.978C485.389 170.47 485.206 170.798 485.023 171.126C484.658 170.962 484.293 170.798 483.927 170.634C483.197 169.977 482.649 169.322 482.1 168.665C479.725 164.891 475.522 163.413 471.32 162.265C468.031 161.444 464.742 161.116 461.27 160.624C457.616 160.131 454.51 158.655 451.952 156.357C450.308 154.88 448.846 153.403 447.567 151.762C447.201 151.27 447.201 150.449 447.019 149.3Z" fill="black"/>
<path d="M299.201 97.6069C301.394 98.0993 303.587 98.5917 305.597 99.2475C314.185 102.202 320.762 107.617 326.609 113.853C328.984 116.479 331.36 119.269 333.553 122.059C333.918 122.551 333.918 123.536 333.918 124.192C333.005 124.028 332.09 124.192 331.36 123.7C330.264 123.044 329.533 122.223 328.619 121.402C323.321 116.315 318.204 110.899 312.723 106.141C309.068 103.022 304.866 100.232 300.116 98.7559C299.933 98.7559 299.568 98.5917 299.385 98.4276C299.202 98.4276 299.201 98.0993 299.201 98.0993C299.019 97.9351 299.201 97.771 299.201 97.6069Z" fill="black"/>
<path d="M299.75 432.877C299.384 434.517 299.202 436.487 298.836 438.62C298.836 438.948 298.653 439.441 298.471 439.769C297.923 440.426 297.192 441.575 296.461 441.575C295.73 441.575 294.817 440.754 294.269 439.933C292.441 436.979 290.98 434.026 289.335 431.071C288.787 429.923 288.056 428.938 287.691 427.789C287.508 427.133 287.325 426.312 287.691 425.82C288.239 424.343 289.335 424.014 290.614 425.163C291.71 425.984 292.441 426.969 293.355 427.789C294.269 428.61 295.182 428.938 296.095 427.625C296.095 427.625 296.095 427.461 296.279 427.461C297.009 426.969 297.74 426.641 298.653 426.148C299.019 426.805 299.568 427.461 299.75 428.281C299.75 429.594 299.75 431.071 299.75 432.877Z" fill="black"/>
<path d="M261.745 296.176C261.197 299.622 258.821 302.084 256.995 304.545C256.081 305.858 254.985 307.171 254.071 308.484C252.975 309.961 252.792 311.602 253.341 313.243C254.802 317.838 256.081 322.433 259.004 326.535C259.736 327.684 260.832 328.669 261.745 329.982C262.11 330.31 261.928 330.966 262.11 331.459C261.38 331.459 260.466 331.787 260.101 331.459C258.639 329.982 257.177 328.505 256.264 326.7C253.889 322.104 251.878 317.182 249.503 312.422C248.407 310.125 248.955 308.319 250.6 306.515C253.706 303.397 256.995 300.279 260.101 297.16C260.284 296.833 260.832 296.668 261.745 296.176Z" fill="black"/>
<path d="M436.239 324.731C436.421 325.715 436.421 326.207 436.421 326.864C436.787 329.161 435.691 330.638 433.133 331.295C432.036 331.459 431.305 331.131 431.305 330.31C431.305 329.161 431.67 327.849 432.218 326.7C433.498 323.582 434.411 319.479 431.122 317.346C429.661 316.361 428.199 315.704 426.737 314.884C425.093 313.9 423.266 313.079 421.621 312.094C421.256 311.766 421.073 311.273 420.708 310.782C421.256 310.617 421.804 310.289 422.352 310.289C423.814 310.289 424.91 310.782 425.824 311.93C426.92 313.407 428.381 314.064 430.392 314.392C433.133 314.884 435.507 316.033 436.421 318.658C437.152 320.3 438.065 322.104 439.528 323.417C440.806 324.402 442.817 324.566 444.461 325.059C444.826 325.059 445.191 324.895 445.374 324.895C445.923 325.058 446.471 325.386 447.019 325.715C446.653 326.207 446.288 327.028 445.923 327.028C444.278 327.028 442.451 327.028 440.806 326.7C439.345 326.043 438.066 325.386 436.239 324.731Z" fill="black"/>
<path d="M347.804 101.217C347.073 95.1455 353.286 88.9089 360.046 87.2682C361.142 87.1041 362.238 87.1041 363.335 87.1041C362.787 87.9248 362.238 88.7447 361.508 89.4013C357.488 92.8475 354.199 96.7862 352.738 101.71C352.372 102.858 352.372 104.335 352.006 105.484C351.641 106.468 350.91 107.289 350.362 108.11C349.814 107.289 348.9 106.468 348.535 105.648C348.169 104.171 348.169 102.695 347.804 101.217Z" fill="black"/>
<path d="M410.293 291.417C409.197 290.924 407.917 290.76 406.821 290.103C403.533 287.97 400.792 285.181 398.416 282.063C395.493 278.124 392.57 274.021 389.281 270.247C385.443 265.816 381.789 261.386 376.308 258.431C374.663 257.611 372.837 257.119 371.009 256.626C370.461 256.462 369.913 256.626 369.548 256.462C368.451 256.298 367.537 255.97 367.537 254.821C367.72 254.001 369.182 253.344 370.278 253.836C371.922 254.493 373.567 254.985 375.029 255.805C377.769 257.447 380.876 258.923 383.251 260.893C386.175 263.354 388.367 266.472 390.742 269.262C395.127 274.35 399.147 279.601 403.533 284.688C405.177 286.657 407.552 288.135 409.562 289.776C409.745 289.94 410.11 290.268 410.293 290.432C410.476 290.924 410.293 291.252 410.293 291.417Z" fill="black"/>
<path d="M347.987 404.978C346.525 404.814 345.063 405.143 343.785 406.292C343.419 406.783 342.322 407.276 341.957 406.947C341.226 406.455 340.313 405.799 340.313 404.978C340.13 403.665 339.4 403.009 338.303 402.189C337.024 401.368 336.111 400.055 335.014 398.907C334.831 398.743 334.831 398.25 335.014 398.086C335.197 397.922 335.562 397.758 335.927 397.922C336.476 398.086 336.841 398.25 337.389 398.414C338.668 398.907 339.582 398.743 340.678 398.086C342.322 396.937 343.237 397.101 344.698 398.414C346.525 400.219 347.256 400.383 349.814 399.563C350.728 399.234 351.824 398.907 352.738 398.907C353.651 398.907 354.93 399.398 355.295 400.055C355.661 400.712 355.478 401.861 354.93 402.516C353.651 404.322 351.458 404.978 347.987 404.978Z" fill="black"/>
<path d="M332.456 368.875C333.735 369.696 334.649 370.188 335.379 370.845C337.207 372.485 339.034 374.127 340.861 375.931C341.957 377.08 342.14 379.214 341.226 379.706C339.765 380.527 338.486 379.87 337.207 379.049C336.111 378.229 334.649 377.901 333.187 378.393C327.888 380.363 324.417 377.573 320.945 374.782C320.58 374.455 320.58 373.634 320.397 372.978C321.128 372.978 321.858 372.649 322.406 372.814C323.138 372.978 323.869 373.306 324.599 373.634C326.609 374.618 328.802 374.455 330.812 373.962C332.273 373.634 332.638 372.649 332.456 371.5C332.273 370.845 332.456 370.188 332.456 368.875Z" fill="black"/>
<path d="M387.636 455.687C387.636 452.733 388.367 449.779 390.194 447.318C390.925 446.497 392.204 446.005 393.118 445.348C393.301 446.333 393.666 447.318 393.666 448.303C393.666 449.287 393.483 450.108 394.945 450.6C395.31 450.764 395.675 451.749 395.493 452.241C394.945 454.046 394.214 455.687 393.849 457.493C393.301 459.79 393.118 461.924 392.57 464.221C392.386 465.042 391.838 465.698 391.656 466.354C390.925 465.862 389.829 465.534 389.646 464.877C387.819 462.088 387.819 458.806 387.636 455.687Z" fill="black"/>
<path d="M365.527 354.269C365.345 355.09 365.162 355.911 364.979 356.567C363.701 362.147 363.335 367.562 365.345 372.978C365.71 373.798 365.893 374.618 365.893 375.439C366.259 376.916 365.345 377.573 363.701 377.409C362.056 377.245 360.594 377.08 358.95 377.08C357.305 376.916 354.565 375.111 354.382 373.634C354.382 373.306 354.93 372.814 355.295 372.485C355.478 372.321 355.661 372.485 356.026 372.485C358.95 372.978 360.046 372.157 360.412 369.367C360.777 365.921 361.142 362.311 361.69 358.865C362.056 356.895 362.97 355.09 364.979 353.941C365.162 354.105 365.345 354.105 365.527 354.269Z" fill="black"/>
<path d="M380.145 351.151C381.424 353.121 381.789 355.254 381.789 357.551C381.424 361.982 380.145 366.085 378.135 370.188C376.673 373.142 375.394 376.26 374.481 379.378C373.933 380.855 374.298 382.496 374.298 384.137C374.298 384.465 374.115 384.957 373.933 385.285C373.567 385.121 373.019 384.958 372.654 384.629C372.47 384.465 372.288 384.137 372.105 383.809C370.461 380.363 370.278 376.916 372.288 373.47C373.75 371.009 375.211 368.547 376.673 366.085C379.231 361.982 380.145 357.551 379.597 352.793C379.597 352.3 379.78 351.644 379.78 351.151C379.597 351.151 379.78 351.151 380.145 351.151Z" fill="black"/>
<path d="M379.414 115.166C380.145 113.689 380.51 112.212 381.424 111.063C383.799 108.11 386.357 105.32 388.915 102.53C389.464 102.038 390.925 101.71 391.838 101.874C393.483 102.038 393.849 102.695 393.301 104.171C392.57 105.977 392.57 105.977 394.762 106.632C395.127 106.797 395.675 106.797 395.859 107.125C396.224 107.617 396.955 108.274 396.955 108.602C396.772 109.095 395.859 109.423 395.31 109.751C395.127 109.915 394.579 109.751 394.214 109.751C389.646 109.587 385.992 111.063 383.434 114.674C383.069 115.166 382.52 115.823 381.972 116.151C381.606 116.479 380.876 116.644 380.51 116.479C379.962 116.315 379.78 115.659 379.414 115.166Z" fill="black"/>
<path d="M256.264 336.874C253.889 336.382 252.609 334.577 251.148 333.1C248.224 329.817 246.58 326.043 245.483 322.104C245.301 321.449 244.935 320.956 244.57 319.807C244.022 320.628 243.657 321.12 243.474 321.612C242.926 322.597 242.56 323.417 242.012 324.402C241.829 324.731 241.098 324.895 240.733 325.222C240.368 324.731 239.82 324.238 239.82 323.746C239.82 323.089 240.002 322.433 240.368 321.776C241.464 319.643 242.742 317.51 244.022 315.376C244.57 314.555 245.301 313.9 245.849 313.243C246.031 313.407 246.397 313.407 246.58 313.571C246.763 314.228 247.128 314.884 247.128 315.704C247.493 319.971 249.686 323.582 251.513 327.356C252.609 329.817 253.706 332.28 255.898 334.084C256.447 334.577 256.629 335.725 256.995 336.382C256.447 336.546 256.264 336.71 256.264 336.874Z" fill="black"/>
<path d="M388.001 351.644C388.367 351.972 388.549 352.465 388.915 352.793C391.108 356.567 391.108 360.505 389.829 364.608C388.915 367.562 388.184 370.516 387.453 373.47C386.905 375.931 387.088 378.393 388.184 380.691C388.367 381.183 388.732 381.839 388.549 382.331C388.367 382.824 388.001 383.48 387.636 383.809C387.271 383.973 386.54 383.48 386.175 383.152C384.347 380.691 383.434 378.229 384.165 375.275C385.443 369.86 386.54 364.444 387.453 359.029C387.819 357.223 387.453 355.418 387.271 353.613C387.271 352.957 387.271 352.464 387.271 351.808C387.636 351.644 387.819 351.644 388.001 351.644Z" fill="black"/>
<path d="M401.34 357.223C401.34 360.178 401.34 362.967 401.34 365.921C401.34 366.742 401.888 367.562 401.888 368.382C401.888 368.875 401.705 369.696 401.34 370.024C400.974 370.188 400.061 370.024 399.513 369.696C397.685 368.711 397.503 366.906 397.503 365.264C397.503 361.49 397.868 357.88 397.868 354.105C397.868 351.151 397.685 348.033 396.224 345.244C396.041 345.08 396.041 344.915 396.041 344.751C396.224 344.259 396.224 343.602 396.407 343.11C396.955 343.438 397.685 343.602 397.868 344.095C400.792 347.869 401.34 352.464 401.34 357.223Z" fill="black"/>
<path d="M217.711 162.593C218.076 161.444 218.259 160.131 218.807 158.983C221.548 153.239 224.106 147.495 228.491 142.572C229.587 141.259 231.049 140.11 232.51 138.961C232.876 138.633 233.607 138.633 234.155 138.633C234.155 139.126 234.338 139.946 234.155 140.275C232.693 142.408 231.049 144.542 229.404 146.511C226.664 149.793 224.471 153.403 223.193 157.342C222.461 159.803 220.086 161.116 218.259 162.921C218.076 162.757 217.893 162.593 217.711 162.593Z" fill="black"/>
<path d="M430.94 264.668C430.574 265.488 430.574 266.308 430.026 266.965C426.737 270.903 426.372 275.335 427.103 280.093C427.285 281.078 427.285 282.227 427.103 283.211C426.92 284.524 426.189 285.509 424.727 285.837C423.631 286.001 422.352 284.852 422.352 283.375C422.352 280.914 422.352 278.288 422.901 275.827C423.631 271.396 426.555 267.95 429.844 264.832C430.026 264.668 430.392 264.503 430.574 264.339C430.757 264.503 430.757 264.503 430.94 264.668Z" fill="black"/>
<path d="M277.641 375.931C278.372 377.409 279.285 378.721 280.017 380.198C281.113 382.167 282.392 383.809 285.133 384.137C286.777 384.301 287.691 385.121 287.325 386.763C287.143 387.419 287.691 388.24 287.691 389.06C287.691 389.716 287.873 390.537 287.691 391.194C287.325 392.834 285.681 393.491 284.402 392.342C280.93 389.06 277.276 385.614 276.911 380.691C276.728 379.214 276.911 377.737 276.911 376.26C277.276 375.931 277.459 375.931 277.641 375.931Z" fill="black"/>
<path d="M277.824 310.453C277.093 312.094 275.997 312.586 274.353 312.422C271.429 312.258 269.053 310.946 267.044 309.14C266.496 308.648 265.765 308.484 265.217 308.319C265.034 308.976 264.669 309.633 264.669 310.125C265.034 313.9 265.582 317.674 266.13 321.284C266.13 321.612 266.131 321.94 266.313 322.433C266.131 322.433 265.947 322.597 265.765 322.597C265.034 321.284 264.303 320.135 263.573 318.822C261.562 314.555 261.38 310.125 263.025 305.858C263.207 305.53 263.207 305.201 263.39 304.873C263.938 304.217 264.669 303.725 265.217 303.233C265.765 303.725 266.496 304.217 266.861 304.873C268.871 308.155 271.429 310.453 275.997 310.125C276.363 310.125 276.911 310.289 277.824 310.453Z" fill="black"/>
<path d="M334.831 111.228C336.293 112.048 337.937 112.869 339.216 113.853C341.044 115.659 342.505 117.628 344.15 119.597C345.611 121.402 347.073 123.044 349.632 123.863C349.997 124.028 350.362 124.192 350.545 124.356C350.91 124.684 351.276 125.177 351.641 125.669C351.093 125.997 350.728 126.49 349.997 126.654C346.891 127.474 344.15 126.326 341.957 123.372C340.861 121.895 339.948 120.417 339.034 118.941C337.755 117.135 336.476 115.33 335.379 113.525C335.014 113.033 334.831 112.541 334.466 112.048C334.283 111.556 334.649 111.392 334.831 111.228Z" fill="black"/>
<path d="M358.036 122.715C354.199 123.208 351.276 120.91 348.9 118.284C346.891 116.151 345.611 113.526 344.15 111.063C343.967 110.735 344.15 110.079 344.333 110.079C344.698 109.915 345.246 109.915 345.611 110.243C346.525 110.899 347.256 111.72 347.987 112.377C350.545 114.51 353.286 116.479 356.026 118.448C356.575 118.941 357.488 119.105 358.401 119.269C358.767 119.433 359.315 119.269 359.498 119.433C360.412 120.09 362.056 120.91 362.056 121.73C362.056 123.044 360.229 122.551 359.132 122.715C358.949 122.715 358.767 122.715 358.036 122.715Z" fill="black"/>
<path d="M312.174 375.931C313.089 377.901 312.174 379.542 311.626 381.183C309.982 386.927 306.145 391.686 302.673 396.773C302.308 397.265 301.76 397.758 301.212 397.922C300.664 398.086 299.75 398.25 299.202 397.922C298.836 397.758 298.471 396.773 298.653 396.445C299.384 393.655 300.846 391.358 303.039 389.552C306.876 386.434 309.068 382.66 310.348 378.393C310.53 377.737 310.896 377.08 311.261 376.424C311.626 376.26 311.809 376.096 312.174 375.931Z" fill="black"/>
<path d="M304.683 344.751C304.318 345.736 304.318 346.884 303.77 347.869C302.308 350.659 300.846 353.613 299.019 356.239C297.192 358.7 296.279 361.49 295.73 364.28C295.73 364.772 295.182 365.429 294.817 365.921C294.451 365.429 293.721 364.936 293.721 364.444C292.624 360.013 293.721 355.911 296.827 352.3C299.019 349.838 301.212 347.541 303.405 345.08C303.587 344.915 303.953 344.751 304.135 344.423C304.318 344.587 304.501 344.751 304.683 344.751Z" fill="black"/>
<path d="M250.782 220.03C250.417 222.164 250.234 224.297 249.869 226.267C248.589 231.518 246.397 236.605 241.646 240.052C240.733 240.707 240.002 241.364 238.723 240.544C237.444 239.723 237.444 238.738 238.357 237.589C239.82 235.949 241.646 234.472 243.109 232.831C245.849 229.877 247.859 226.43 249.137 222.656C249.503 221.672 249.869 220.851 250.417 219.866C250.417 220.03 250.6 220.03 250.782 220.03Z" fill="black"/>
<path d="M259.918 103.186C260.832 101.546 261.562 99.4124 263.025 98.2634C267.957 94.3248 273.805 94.6531 279.652 96.1296C280.382 96.2937 281.478 97.4427 281.296 98.0993C281.113 99.2483 279.834 99.0842 278.555 99.0842C274.535 98.5917 270.516 98.0993 266.679 99.9041C265.034 100.725 263.39 101.874 261.928 102.859C261.562 103.186 261.014 103.514 260.649 103.679C260.284 103.514 260.101 103.35 259.918 103.186Z" fill="black"/>
<path d="M417.967 346.393C418.15 346.884 418.515 347.213 418.515 347.705C419.429 352.793 419.612 358.044 417.967 362.967C417.601 364.116 416.688 365.1 415.774 366.085C415.043 366.742 414.13 366.578 413.765 365.593C413.582 364.444 413.399 363.296 413.582 362.147C413.947 360.013 414.678 358.044 415.043 356.075C415.591 353.285 415.957 350.659 416.505 347.869C416.505 347.377 416.871 346.884 417.053 346.393C417.419 346.393 417.601 346.393 417.967 346.393Z" fill="black"/>
<path d="M464.377 236.77C464.194 237.425 464.194 237.918 463.829 238.41C462.915 240.216 461.453 240.38 460.357 238.738C458.164 235.949 456.155 233.323 453.962 230.533C453.231 229.549 452.683 228.564 453.779 227.415C454.875 226.103 455.972 225.938 457.433 227.087C457.616 227.251 457.799 227.415 457.982 227.579C459.809 230.041 461.818 232.503 463.646 235.128C464.194 235.621 464.194 236.277 464.377 236.77Z" fill="black"/>
<path d="M372.654 470.621C372.288 473.903 370.644 475.708 367.172 476.529C366.624 476.693 365.893 477.185 365.527 477.677C364.614 478.662 364.066 478.662 363.335 477.513C362.238 475.708 362.421 473.903 364.066 472.098C364.797 471.442 365.162 470.621 365.71 469.8C366.624 468.159 369.548 466.846 371.192 467.831C371.922 468.488 372.105 469.8 372.654 470.621Z" fill="black"/>
<path d="M197.795 165.875C201.266 166.531 204.19 165.547 206.931 164.07C207.661 163.742 208.392 163.906 208.392 164.891C208.392 166.531 209.123 167.352 210.95 167.516C212.229 167.68 212.412 168.337 211.681 169.322C209.671 171.783 205.469 172.44 202.728 170.798C201.266 169.814 199.805 168.665 198.343 167.516C197.977 167.188 197.795 166.695 197.612 166.367C197.612 166.204 197.795 166.04 197.795 165.875Z" fill="black"/>
<path d="M343.785 341.141C343.602 338.68 344.333 336.382 346.16 334.413C347.621 332.935 348.9 331.623 350.362 330.146C350.728 329.817 351.276 329.653 351.824 329.489C351.824 329.982 351.824 330.474 351.641 330.966C350.91 332.935 349.997 334.741 349.266 336.71C349.083 337.366 349.083 338.187 349.083 339.008C349.265 341.141 348.535 342.782 347.256 344.423C346.16 345.736 345.063 345.572 344.15 344.259C343.967 343.766 343.785 343.274 343.785 342.782C343.785 342.126 343.785 341.633 343.785 341.141Z" fill="black"/>
<path d="M242.194 268.278C241.098 269.754 240.185 271.068 239.271 272.217C238.357 273.201 237.444 274.021 236.348 274.842C235.251 275.499 234.155 275.827 232.876 275.006C231.597 274.35 230.318 273.857 229.039 273.201C227.395 272.38 227.212 270.903 228.856 270.083C230.136 269.262 231.597 268.605 232.145 267.129C232.145 266.965 232.693 266.801 232.876 266.801C233.242 266.965 233.607 267.293 233.607 267.621C233.607 267.95 233.425 268.442 233.425 268.77C233.425 269.426 233.425 270.247 233.79 270.411C234.155 270.739 235.251 270.575 235.799 270.411C236.896 269.919 237.627 269.098 238.723 268.606C239.637 268.442 240.916 268.442 242.194 268.278Z" fill="black"/>
<path d="M315.098 431.399C314.55 432.056 314.002 432.712 313.271 433.205C312.357 433.861 311.261 433.369 310.896 432.548C308.886 429.266 306.876 425.82 304.866 422.374C304.683 421.881 304.683 421.225 304.866 420.732C305.231 419.748 306.145 419.584 306.876 420.404L307.059 420.568C308.52 423.687 311.261 426.148 313.637 428.774C314.185 429.43 314.55 430.415 315.098 431.399Z" fill="black"/>
<path d="M231.414 312.258C229.039 312.258 227.943 310.289 229.039 308.484C230.501 305.53 235.982 303.233 239.454 304.053C240.55 304.381 240.733 304.873 240.002 305.53C239.454 306.186 238.723 306.679 237.809 307.007C236.531 307.663 235.434 308.319 235.069 309.633C234.338 311.273 233.059 312.094 231.414 312.258Z" fill="black"/>
<path d="M338.303 78.2423C338.668 78.0782 339.034 78.0782 339.4 77.914C341.592 77.2576 343.602 76.6012 345.794 75.9448C347.621 75.4524 349.449 75.1243 351.276 74.7961C352.006 74.7961 352.921 75.1243 353.286 75.6166C353.469 75.9449 353.103 76.7653 352.738 77.2577C352.372 77.75 352.006 78.2422 351.641 78.7346C350.728 80.0474 349.814 80.7038 347.987 80.0474C347.073 79.7192 345.794 80.0475 344.881 79.8833C342.689 79.5551 340.496 79.2269 338.303 78.8987C338.12 78.5705 338.12 78.4064 338.303 78.2423Z" fill="black"/>
<path d="M339.582 420.077C342.322 420.732 345.063 421.225 347.804 422.045C348.352 422.21 349.083 422.866 349.266 423.523C349.266 423.851 348.535 424.671 347.987 424.835C346.708 425.163 346.16 425.82 345.611 426.969C345.429 427.625 344.698 428.445 344.15 428.445C343.419 428.445 342.688 427.789 342.14 427.297C340.678 425.492 339.399 423.523 338.12 421.553C337.937 421.225 337.755 420.732 337.937 420.568C338.485 420.24 338.851 420.24 339.582 420.077Z" fill="black"/>
<path d="M230.318 292.073C230.866 291.417 231.049 291.088 231.414 290.76C233.607 289.448 235.982 288.791 238.357 289.776C240.733 290.924 242.925 290.103 245.118 289.448C245.666 289.284 246.214 289.448 246.945 289.448C246.763 290.103 246.763 290.924 246.397 291.088C244.753 292.073 243.109 293.058 241.281 293.878C239.454 294.699 237.627 294.699 236.165 293.058C235.069 291.745 233.607 291.253 231.78 292.073C231.232 292.237 231.049 292.073 230.318 292.073Z" fill="black"/>
<path d="M447.201 306.843C447.384 307.335 447.749 307.827 447.932 308.319C448.845 310.617 449.577 312.915 450.49 315.048C451.221 316.853 451.221 318.658 450.125 320.299C449.76 320.792 449.028 321.449 448.297 321.449C447.932 321.449 447.201 320.792 446.836 320.135C446.471 319.479 446.105 318.658 446.105 317.838C445.923 314.555 446.105 311.273 446.105 307.827C446.105 307.335 446.288 307.007 446.471 306.515C446.836 306.843 447.019 306.843 447.201 306.843Z" fill="black"/>
<path d="M307.972 443.215C307.789 445.677 308.337 448.139 306.511 450.272C305.779 451.092 305.231 451.913 303.953 451.421C302.673 450.928 302.673 449.779 302.857 448.794C303.039 447.81 303.587 446.826 303.953 445.841C304.501 444.2 304.866 442.394 305.231 440.754V440.59C305.414 439.441 305.414 437.799 306.876 437.799C308.155 437.799 307.789 439.441 307.789 440.426C307.972 441.41 307.972 442.394 307.972 443.215Z" fill="black"/>
<path d="M343.602 370.68C342.322 370.188 340.496 369.696 339.033 368.711C337.572 367.726 336.293 366.414 335.014 365.265C334.649 364.936 334.466 364.608 334.466 364.116C334.466 363.46 334.649 362.967 334.831 362.311C335.379 362.475 336.111 362.475 336.476 362.803C337.572 363.46 338.485 364.116 339.4 364.936C340.861 366.249 342.871 366.742 344.881 367.07C345.794 367.234 347.439 367.726 347.621 368.382C347.987 369.696 346.343 369.86 345.246 370.352C344.881 370.516 344.515 370.516 343.602 370.68Z" fill="black"/>
<path d="M452.501 307.827C453.049 308.155 453.231 308.155 453.231 308.319C454.693 312.258 456.703 316.033 455.789 320.464C455.606 320.956 455.606 321.449 455.241 321.94C455.058 322.268 454.51 322.761 454.145 322.761C453.779 322.761 453.231 322.268 452.866 321.94C452.501 321.284 452.134 320.628 452.134 319.971C451.952 316.525 451.952 312.915 451.952 309.468C451.952 308.976 452.317 308.484 452.501 307.827Z" fill="black"/>
<path d="M283.671 341.141C284.037 341.469 284.95 341.798 284.95 342.126C284.95 342.618 284.585 343.274 284.219 343.602C282.209 345.08 280.017 346.392 278.007 347.705C276.911 348.362 275.997 349.182 274.718 348.198C273.622 347.213 273.987 346.064 274.718 345.08C276.728 342.29 279.834 341.305 283.671 341.141Z" fill="black"/>
<path d="M377.587 462.744C377.769 461.924 377.952 461.103 378.135 460.282C378.135 459.954 378.683 459.79 378.866 459.626C379.048 459.954 379.597 460.118 379.414 460.446C379.231 462.58 381.058 463.728 382.154 465.37C382.886 466.518 383.617 467.667 383.982 468.98C384.165 469.8 383.251 470.785 382.886 471.606C381.972 471.113 380.51 470.949 380.145 470.293C379.048 467.995 378.135 465.534 377.221 463.072C377.404 462.908 377.587 462.908 377.587 462.744Z" fill="black"/>
<path d="M280.748 365.1C280.565 364.444 280.2 363.624 280.382 362.967C280.93 361.326 281.478 359.521 282.392 358.044C284.219 355.582 286.595 353.449 288.787 350.987C289.518 350.167 290.066 349.182 290.797 348.198C290.98 348.198 291.162 348.198 291.345 348.362C291.162 349.347 291.162 350.331 290.614 351.151C289.701 352.629 288.787 353.941 287.508 355.09C285.315 357.059 284.037 359.357 283.123 361.982C282.757 362.967 282.209 363.952 281.661 364.936C281.296 365.265 281.113 365.1 280.748 365.1Z" fill="black"/>
<path d="M267.775 358.044C267.592 358.7 267.592 359.357 267.409 360.013C266.861 361.818 266.13 362.475 264.851 362.147C263.207 361.818 261.928 360.342 262.293 358.865C262.476 358.372 262.658 357.88 262.841 357.223C263.573 355.582 264.303 353.941 265.217 352.3C265.399 351.972 265.765 351.808 266.13 351.48C266.313 351.808 266.861 351.972 266.861 352.3C267.227 354.269 267.592 356.239 267.775 358.044Z" fill="black"/>
<path d="M396.589 297.16C396.224 296.176 395.675 295.191 395.127 294.042C394.945 293.55 395.127 292.894 395.127 292.237C395.859 292.401 396.772 292.237 396.955 292.566C398.234 294.042 399.513 295.684 400.426 297.324C401.157 298.966 399.513 301.919 397.503 302.74C397.137 302.904 396.041 302.576 396.041 302.248C395.859 301.427 395.859 300.606 396.041 299.786C396.041 298.966 396.407 298.145 396.589 297.16Z" fill="black"/>
<path d="M266.679 90.7144C263.207 92.5192 259.918 94.3248 256.447 95.9654C256.081 96.1296 255.715 96.2937 255.35 96.1296C254.619 95.9662 253.889 95.8021 253.523 95.3096C253.341 95.1455 253.523 94.1607 253.889 93.8324C254.619 93.1758 255.533 92.5192 256.447 92.1917C259.187 91.371 261.745 90.5503 264.486 89.8937C265.034 89.7296 265.765 89.8937 266.313 89.8937C266.679 90.222 266.679 90.5503 266.679 90.7144Z" fill="black"/>
<path d="M320.762 421.225C320.032 421.717 319.666 422.21 319.3 422.21C318.021 422.374 317.656 423.194 317.839 424.179C317.839 424.671 317.473 425.163 317.291 425.656C316.743 425.492 316.011 425.328 315.829 424.999C314.367 423.359 312.906 421.553 311.626 419.912C311.261 419.584 311.626 418.763 311.444 418.271C311.992 418.271 312.722 418.271 313.271 418.435C314.733 418.763 316.011 419.092 317.473 419.584C318.569 419.912 319.484 420.404 320.762 421.225Z" fill="black"/>
<path d="M330.629 408.096C330.994 406.947 331.542 405.307 332.09 403.665C332.273 403.337 333.005 403.009 333.553 403.009C333.735 403.009 334.283 403.665 334.283 403.994C334.101 406.783 333.918 409.573 333.735 412.363C333.735 412.527 333.735 412.856 333.553 413.02C333.187 413.512 332.638 414.004 332.273 414.661C331.908 414.168 331.36 413.512 331.36 412.856C330.994 411.543 330.994 410.065 330.629 408.096Z" fill="black"/>
<path d="M286.96 364.444C286.96 367.726 287.143 371.172 287.143 374.455C287.143 374.947 286.412 375.439 286.046 376.096C285.681 375.603 285.133 375.111 284.95 374.618C284.219 371.665 283.489 368.875 285.133 365.921C285.498 365.265 286.046 364.772 286.412 364.28C286.595 364.28 286.777 364.444 286.96 364.444Z" fill="black"/>
<path d="M235.069 184.747C232.328 185.732 229.77 186.881 226.847 187.701C220.817 189.178 215.883 192.296 211.864 196.727C211.316 197.384 210.402 197.876 209.488 198.86C210.95 193.938 227.943 184.583 234.886 184.583C234.886 184.419 234.886 184.583 235.069 184.747Z" fill="black"/>
<path d="M238.175 226.758C237.809 229.385 236.713 231.518 234.521 233.159C233.79 233.651 233.059 233.487 233.242 232.667C233.425 230.369 233.607 227.907 235.799 226.102C236.165 225.774 236.896 225.446 237.261 225.61C237.809 225.774 237.992 226.43 238.175 226.758Z" fill="black"/>
<path d="M211.864 180.317C211.681 180.644 211.681 181.137 211.316 181.301C209.488 183.599 207.661 185.732 205.834 188.029C205.651 188.193 205.469 188.522 205.286 188.522C204.738 188.686 204.007 188.85 203.459 188.85C203.459 188.358 203.094 187.701 203.277 187.209C203.459 186.717 204.007 186.224 204.555 185.732C206.383 184.091 208.392 182.286 210.22 180.644C210.585 180.317 211.133 180.153 211.498 179.824C211.681 180.153 211.864 180.317 211.864 180.317Z" fill="black"/>
<path d="M199.073 252.195C198.16 253.18 197.612 253.836 196.881 254.329C196.15 253.508 195.237 252.688 194.871 251.703C194.689 251.21 195.785 250.39 196.333 249.734C197.064 250.719 197.977 251.374 199.073 252.195Z" fill="black"/>
</g>
</svg>
